<svg width="268" height="268" viewBox="0 0 268 268" fill="none" xmlns="http://www.w3.org/2000/svg">
<path d="M255.218 104.789C258.105 104.835 260.217 105.56 262.36 107.562C264.888 110.281 265.77 112.545 265.77 116.275C265.648 118.752 265.179 121.096 264.391 123.45C264.027 124.545 263.739 125.655 263.45 126.772C263.28 127.338 263.28 127.338 263.004 127.615C262.92 128.011 262.847 128.409 262.779 128.808C262.456 130.495 261.911 132.08 261.344 133.7C261.2 134.131 261.055 134.563 260.912 134.996C260.814 135.291 260.814 135.291 260.714 135.591C260.574 136.009 260.436 136.428 260.299 136.847C259.941 137.934 259.562 139 259.132 140.061C258.787 141.05 258.479 142.047 258.181 143.051C257.569 145.099 256.888 147.095 256.081 149.075C255.842 149.668 255.617 150.264 255.398 150.864C255.119 151.62 254.805 152.347 254.465 153.077C253.957 154.192 253.575 155.335 253.203 156.5C252.733 157.96 252.175 159.307 251.456 160.662C251.06 161.459 250.749 162.269 250.437 163.103C249.738 164.964 248.921 166.752 248.069 168.548C247.87 168.972 247.67 169.395 247.471 169.819C246.934 170.963 246.396 172.107 245.856 173.25C245.674 173.25 245.491 173.25 245.303 173.25C245.267 173.598 245.267 173.598 245.23 173.954C244.995 175.059 244.539 175.941 243.989 176.914C243.787 177.282 243.585 177.649 243.383 178.017C243.285 178.195 243.187 178.373 243.086 178.556C242.728 179.215 242.398 179.887 242.071 180.561C241.573 181.569 241.017 182.51 240.408 183.454C240.005 184.106 239.647 184.775 239.288 185.453C237.706 188.383 235.806 191.12 233.894 193.841C233.416 194.503 233.416 194.503 233.134 195.099C232.951 195.099 232.769 195.099 232.581 195.099C232.49 195.464 232.398 195.829 232.304 196.205C232.122 196.205 231.939 196.205 231.751 196.205C231.677 196.411 231.603 196.616 231.526 196.827C231.211 197.558 230.895 198.101 230.368 198.694C230.186 198.694 230.003 198.694 229.815 198.694C229.724 199.059 229.632 199.425 229.538 199.801C229.356 199.801 229.173 199.801 228.985 199.801C228.803 200.257 228.62 200.713 228.432 201.184C228.25 201.184 228.067 201.184 227.879 201.184C227.81 201.338 227.741 201.492 227.669 201.65C227.268 202.397 226.787 203.013 226.254 203.673C226.067 203.907 225.879 204.14 225.686 204.381C225.151 205.012 224.621 205.607 224.007 206.162C223.824 206.162 223.642 206.162 223.454 206.162C223.271 206.527 223.089 206.892 222.901 207.268C222.718 207.268 222.536 207.268 222.348 207.268C222.256 207.542 222.165 207.816 222.071 208.098C221.888 208.098 221.706 208.098 221.518 208.098C221.461 208.246 221.404 208.394 221.345 208.547C220.817 209.459 220.122 210.198 219.305 210.864C219.123 210.864 218.94 210.864 218.752 210.864C218.661 211.137 218.57 211.411 218.476 211.693C218.022 212.071 217.56 212.439 217.093 212.8C216.853 213.045 216.613 213.29 216.367 213.543C215.71 214.182 215.71 214.182 214.88 214.459C214.88 214.642 214.88 214.824 214.88 215.012C214.476 215.369 214.476 215.369 213.947 215.738C213.773 215.862 213.6 215.985 213.422 216.112C212.944 216.395 212.944 216.395 212.391 216.395C212.3 216.669 212.208 216.943 212.114 217.225C211.841 217.225 211.567 217.225 211.285 217.225C211.193 217.499 211.102 217.772 211.008 218.055C210.825 218.055 210.643 218.055 210.455 218.055C210.364 218.328 210.272 218.602 210.178 218.884C209.733 219.3 209.733 219.3 209.162 219.732C208.955 219.889 208.749 220.046 208.537 220.208C208.32 220.37 208.103 220.532 207.879 220.699C207.666 220.862 207.452 221.025 207.232 221.194C205.624 222.408 205.624 222.408 204.87 222.772C204.321 222.996 204.321 222.996 204.094 223.586C203.615 223.866 203.136 224.145 202.649 224.41C202.118 224.7 202.118 224.7 201.535 225.176C201.051 225.522 201.051 225.522 200.222 225.522C200.222 225.705 200.222 225.887 200.222 226.075C199.988 226.189 199.755 226.303 199.514 226.421C198.528 226.922 197.567 227.459 196.609 228.011C196.36 228.153 196.36 228.153 196.107 228.299C195.377 228.718 194.651 229.141 193.931 229.578C192.578 230.379 191.092 230.882 189.625 231.434C188.528 231.85 187.492 232.291 186.462 232.851C185.018 233.607 183.502 234.027 181.937 234.456C180.818 234.758 180.818 234.758 179.753 235.207C178.879 235.638 177.933 235.81 176.989 236.032C176.636 236.123 176.284 236.214 175.92 236.308C173.402 236.944 170.927 237.341 168.341 237.582C167.387 237.655 167.387 237.655 166.79 237.834C166.057 238.001 165.377 238.005 164.624 238.008C164.148 238.011 164.148 238.011 163.661 238.013C163.318 238.014 162.974 238.014 162.621 238.014C162.086 238.016 162.086 238.016 161.541 238.017C160.785 238.019 160.029 238.019 159.273 238.019C158.506 238.019 157.739 238.021 156.972 238.025C149.044 238.063 149.044 238.063 145.183 237.415C144.498 237.321 143.812 237.228 143.126 237.138C142.79 237.092 142.454 237.047 142.108 237C141.338 236.901 140.569 236.808 139.798 236.723C139.485 236.688 139.485 236.688 139.166 236.653C138.765 236.609 138.365 236.566 137.964 236.526C136.724 236.389 135.593 236.102 134.397 235.755C133.736 235.65 133.073 235.558 132.409 235.479C130.883 235.288 129.368 235.064 127.852 234.806C124.683 234.268 121.52 233.77 118.321 233.445C117.551 233.366 116.794 233.287 116.036 233.123C115.266 232.981 114.553 232.952 113.77 232.949C113.467 232.948 113.164 232.946 112.852 232.944C112.527 232.944 112.203 232.943 111.868 232.943C111.532 232.942 111.195 232.941 110.848 232.94C110.137 232.939 109.425 232.938 108.713 232.938C107.628 232.938 106.543 232.933 105.458 232.927C104.766 232.927 104.073 232.926 103.381 232.926C103.058 232.924 102.735 232.922 102.402 232.92C100.699 232.924 99.2441 233.055 97.6128 233.543C96.9918 233.638 96.3694 233.725 95.7459 233.802C91.2264 234.421 86.6521 235.892 82.6043 238.021C81.738 238.425 80.8356 238.389 79.912 238.244C78.7456 237.562 77.9365 236.49 77.0674 235.469C76.6559 234.997 76.2329 234.562 75.7807 234.13C75.2103 233.543 75.2103 233.543 75.2103 232.989C74.9365 232.898 74.6627 232.807 74.3806 232.713C74.0027 232.259 73.6352 231.797 73.2743 231.33C72.8199 230.863 72.3575 230.403 71.8914 229.947C71.6957 229.749 71.4999 229.55 71.2983 229.345C70.0383 228.06 70.0383 228.06 68.6762 226.888C67.6953 226.087 66.8438 225.152 66.0834 224.139C66.0834 223.957 66.0834 223.774 66.0834 223.586C65.8095 223.495 65.5357 223.403 65.2536 223.309C65.2536 223.127 65.2536 222.944 65.2536 222.756C64.9798 222.665 64.706 222.574 64.4239 222.48C63.8189 221.944 63.8189 221.944 63.3176 221.373C63.3176 221.191 63.3176 221.008 63.3176 220.82C63.0438 220.729 62.77 220.638 62.4879 220.544C62.1176 220.084 61.7491 219.623 61.3816 219.161C60.9768 218.828 60.5718 218.496 60.1636 218.167C59.7025 217.761 59.327 217.334 58.9335 216.862C57.548 215.26 56.0404 213.778 54.5408 212.284C54.0343 211.779 53.5293 211.272 53.0244 210.766C52.6984 210.44 52.3723 210.114 52.0462 209.789C51.8231 209.565 51.8231 209.565 51.5955 209.336C50.8834 208.629 50.1648 207.963 49.381 207.335C49.1428 207.131 48.9046 206.926 48.6592 206.715C48.6592 206.532 48.6592 206.35 48.6592 206.162C48.3854 206.071 48.1116 205.979 47.8295 205.885C47.4592 205.426 47.0907 204.964 46.7232 204.502C46.4288 204.248 46.129 204.001 45.8243 203.759C45.4478 203.443 45.4478 203.443 45.0637 203.12C45.0637 202.937 45.0637 202.754 45.0637 202.566C44.7899 202.475 44.5161 202.384 44.234 202.29C43.8377 201.888 43.8377 201.888 43.4065 201.36C42.0968 199.816 40.6573 198.407 39.2211 196.983C38.9485 196.712 38.6758 196.44 38.4033 196.169C37.902 195.67 37.4003 195.171 36.8982 194.673C36.4251 194.203 35.9532 193.732 35.4821 193.26C35.0168 192.796 34.5454 192.338 34.0699 191.884C33.4477 191.227 33.4477 191.227 33.1711 190.397C32.9885 190.397 32.806 190.397 32.6179 190.397C31.2351 188.889 31.2351 188.889 31.2351 187.908C31.9056 186.876 32.7244 186.129 33.7242 185.419C33.9068 185.419 34.0893 185.419 34.2774 185.419C34.2774 185.236 34.2774 185.054 34.2774 184.866C35.0965 184.265 35.8004 183.805 36.7665 183.483C36.7665 183.3 36.7665 183.118 36.7665 182.93C37.2465 182.53 37.7455 182.153 38.2531 181.789C38.5291 181.588 38.805 181.388 39.0893 181.182C39.8088 180.717 39.8088 180.717 40.362 180.717C40.362 180.535 40.362 180.352 40.362 180.164C40.7271 180.073 41.0921 179.981 41.4683 179.887C41.4683 179.705 41.4683 179.522 41.4683 179.334C41.9058 178.985 41.9058 178.985 42.5227 178.591C42.7502 178.444 42.9776 178.298 43.212 178.147C43.458 177.991 43.704 177.835 43.9575 177.675C44.2035 177.516 44.4495 177.357 44.7029 177.194C46.1813 176.244 47.6747 175.324 49.1864 174.428C49.664 174.14 50.1313 173.835 50.5952 173.526C50.869 173.526 51.1428 173.526 51.4249 173.526C51.5162 173.252 51.6075 172.979 51.7015 172.696C52.4181 172.31 53.1192 171.969 53.8623 171.642C54.2942 171.446 54.726 171.249 55.1576 171.052C55.3704 170.956 55.5832 170.859 55.8025 170.76C56.6003 170.393 57.3837 170 58.1664 169.602C59.6809 168.839 61.2104 168.121 62.7645 167.442C62.9852 167.345 63.2058 167.248 63.4332 167.149C65.0809 166.458 66.7601 165.964 68.4818 165.49C69.2461 165.273 69.9863 165.031 70.7333 164.762C71.7592 164.406 72.7336 164.273 73.8155 164.208C74.3921 164.151 74.3921 164.151 74.9013 163.857C75.6476 163.491 76.3426 163.397 77.1636 163.276C78.0309 163.146 78.8026 163.017 79.6355 162.74C80.1058 162.684 80.5775 162.639 81.0497 162.601C81.3265 162.579 81.6033 162.556 81.8886 162.532C82.1775 162.51 82.4665 162.487 82.7642 162.463C83.3336 162.418 83.903 162.372 84.4723 162.325C84.7248 162.305 84.9773 162.285 85.2375 162.264C86.0065 162.195 86.0065 162.195 86.7977 162.042C87.7568 161.895 88.6694 161.874 89.6397 161.873C89.8281 161.873 90.0165 161.873 90.2107 161.872C90.6095 161.872 91.0084 161.873 91.4073 161.874C91.9989 161.875 92.5905 161.874 93.1822 161.872C95.1505 161.871 97.1049 161.919 99.0691 162.047C102.282 162.25 105.499 162.238 108.717 162.238C109.78 162.238 110.843 162.244 111.906 162.249C115.233 162.256 118.497 162.204 121.797 161.763C122.964 161.609 124.112 161.542 125.287 161.495C126.694 161.428 128.022 161.294 129.386 160.933C130.347 160.721 131.321 160.68 132.301 160.622C133.076 160.519 133.676 160.268 134.397 159.974C134.89 159.88 135.386 159.8 135.884 159.732C137.576 159.468 139.2 159.047 140.85 158.593C141.756 158.344 142.664 158.109 143.576 157.882C143.977 157.782 143.977 157.782 144.386 157.68C144.917 157.55 145.449 157.423 145.981 157.298C148.253 156.756 150.443 156.029 152.651 155.272C152.824 155.216 152.998 155.16 153.177 155.101C155.119 154.47 157.03 153.754 158.942 153.038C159.527 152.819 160.113 152.602 160.699 152.384C162.603 151.674 164.48 150.932 166.322 150.072C167.567 149.492 168.831 148.955 170.092 148.41C174.995 146.339 174.995 146.339 179.79 144.036C182.973 142.397 186.139 141.388 189.712 141.357C190.012 141.349 190.313 141.341 190.623 141.333C193.533 141.31 195.834 142.131 198.286 143.656C198.286 143.839 198.286 144.021 198.286 144.209C198.651 144.301 199.016 144.392 199.392 144.486C199.392 144.668 199.392 144.851 199.392 145.039C199.549 145.101 199.706 145.164 199.867 145.228C201.925 146.415 203.349 148.923 204.094 151.124C204.208 151.455 204.322 151.785 204.439 152.126C205.311 156.11 204.378 159.93 202.365 163.398C200.149 166.717 197.009 169.081 193.584 171.037C193.214 171.272 192.845 171.508 192.478 171.746C191.454 172.39 190.39 172.924 189.303 173.454C188.614 173.798 187.945 174.166 187.275 174.546C186.445 175.014 185.627 175.404 184.734 175.739C184.642 175.83 184.551 175.921 184.457 176.015C183.996 176.027 183.535 176.027 183.074 176.015C183.074 176.198 183.074 176.38 183.074 176.568C182.784 176.682 182.494 176.795 182.196 176.912C181.814 177.062 181.433 177.213 181.052 177.364C180.861 177.438 180.67 177.513 180.473 177.589C179.614 177.93 178.867 178.267 178.096 178.781C177.543 178.965 176.989 179.15 176.436 179.334C176.031 179.509 175.628 179.688 175.226 179.87C173.472 180.662 171.681 181.293 169.854 181.895C169.124 182.141 168.405 182.412 167.685 182.685C164.494 183.88 161.288 185.008 157.998 185.894C156.662 186.255 155.341 186.624 154.034 187.078C153.625 187.217 153.216 187.356 152.807 187.493C152.613 187.559 152.419 187.624 152.22 187.692C151.355 187.969 150.482 188.213 149.609 188.461C148.882 188.674 148.156 188.887 147.431 189.101C147.016 189.223 146.602 189.345 146.187 189.467C145.976 189.529 145.765 189.591 145.548 189.655C144.712 189.901 143.875 190.147 143.039 190.392C142.445 190.567 141.851 190.742 141.257 190.918C140.643 191.098 140.028 191.276 139.412 191.449C137.236 192.068 135.152 192.915 133.135 193.941C132.461 194.269 132.461 194.269 131.631 194.269C131.54 194.543 131.449 194.817 131.355 195.099C130.986 195.283 130.617 195.468 130.248 195.652C129.476 196.479 129.419 196.677 129.419 197.865C129.856 198.034 130.294 198.201 130.732 198.366C130.976 198.459 131.22 198.552 131.471 198.648C138.481 200.936 145.724 201.078 153.014 201.015C153.901 201.009 154.789 201.009 155.677 201.01C156.542 201.01 157.408 201.007 158.274 201.003C158.682 201.001 159.09 201 159.498 200.999C161.62 200.995 163.589 200.904 165.65 200.354C166.597 200.212 167.549 200.116 168.502 200.019C169.579 199.898 170.466 199.677 171.458 199.247C171.876 199.15 172.297 199.063 172.72 198.988C176.177 198.331 179.505 197.404 182.738 196.018C183.687 195.627 184.646 195.282 185.615 194.943C192.298 192.577 198.4 188.697 204.06 184.479C205.416 183.483 205.416 183.483 206.03 183.483C206.121 183.209 206.212 182.935 206.306 182.653C206.58 182.653 206.854 182.653 207.136 182.653C207.227 182.379 207.319 182.105 207.413 181.823C207.595 181.823 207.778 181.823 207.966 181.823C208.057 181.55 208.148 181.276 208.242 180.994C208.702 180.623 209.163 180.255 209.625 179.887C209.853 179.614 210.081 179.34 210.317 179.058C210.959 178.287 211.606 177.737 212.391 177.122C212.573 176.848 212.756 176.574 212.944 176.292C213.127 176.292 213.309 176.292 213.497 176.292C213.588 176.018 213.68 175.744 213.774 175.462C213.956 175.462 214.139 175.462 214.327 175.462C214.418 175.097 214.509 174.732 214.603 174.356C214.786 174.356 214.969 174.356 215.157 174.356C215.226 174.157 215.296 173.959 215.367 173.754C215.74 172.905 216.198 172.271 216.764 171.538C217.799 170.151 218.595 168.74 219.305 167.165C219.488 167.165 219.67 167.165 219.858 167.165C219.875 166.982 219.893 166.8 219.91 166.612C220.155 165.71 220.574 165.067 221.081 164.291C221.744 163.196 222.293 162.046 222.857 160.898C223.411 159.773 223.986 158.664 224.59 157.565C225.617 155.694 226.459 153.805 227.224 151.814C227.659 150.703 228.148 149.626 228.649 148.545C229.133 147.479 229.574 146.396 230.019 145.313C230.367 144.488 230.736 143.674 231.111 142.861C231.576 141.848 231.979 140.852 232.304 139.784C232.704 138.508 233.13 137.268 233.687 136.05C234.244 134.832 234.667 133.593 235.07 132.317C235.535 130.843 236.047 129.435 236.712 128.038C237.15 126.996 237.487 125.924 237.836 124.849C238.751 122.034 239.697 119.27 240.878 116.552C240.965 116.328 241.052 116.105 241.142 115.875C242.194 113.31 243.605 110.506 245.58 108.531C245.854 108.531 246.127 108.531 246.409 108.531C246.501 108.257 246.592 107.984 246.686 107.702C247.574 106.58 248.948 106.135 250.23 105.593C251.948 104.852 253.271 104.808 255.218 104.789Z" fill="#F7DC09"/>
<path d="M91.2861 12.5084C91.5806 12.505 91.8751 12.5017 92.1785 12.4982C93.9795 12.4949 95.6694 12.6561 97.4399 12.9835C98.5361 13.1797 99.6304 13.2345 100.74 13.2949C101.532 13.3961 102.131 13.6422 102.868 13.9432C103.413 14.0488 103.96 14.1405 104.51 14.2197C106.417 14.5205 108.011 15.1203 109.782 15.8792C110.044 15.9647 110.307 16.0503 110.577 16.1385C113.605 17.168 116.481 18.7386 119.257 20.3098C119.597 20.5012 119.943 20.6829 120.292 20.8575C120.292 21.04 120.292 21.2226 120.292 21.4107C120.481 21.4763 120.67 21.5419 120.865 21.6094C121.842 22.0371 122.688 22.601 123.559 23.2084C123.807 23.3758 123.807 23.3758 124.06 23.5465C124.474 23.8336 124.874 24.1418 125.27 24.453C125.27 24.6355 125.27 24.818 125.27 25.0061C125.426 25.0774 125.581 25.1487 125.741 25.2222C126.45 25.5985 127.055 26.0371 127.69 26.5273C127.911 26.6955 128.132 26.8638 128.36 27.0372C128.527 27.1884 128.694 27.3395 128.866 27.4953C128.866 27.6778 128.866 27.8604 128.866 28.0484C129.139 28.1397 129.413 28.231 129.695 28.325C129.695 28.5075 129.695 28.6901 129.695 28.8781C130.06 29.0607 130.425 29.2432 130.802 29.4313C130.802 29.6138 130.802 29.7964 130.802 29.9844C131.075 30.0757 131.349 30.167 131.631 30.261C131.631 30.4436 131.631 30.6261 131.631 30.8142C131.905 30.9054 132.179 30.9967 132.461 31.0907C132.461 31.2733 132.461 31.4558 132.461 31.6439C132.998 31.5675 132.998 31.5675 133.567 31.3673C133.75 31.0935 133.932 30.8197 134.121 30.5376C134.303 30.5376 134.486 30.5376 134.674 30.5376C134.765 30.2638 134.856 29.99 134.95 29.7079C135.133 29.7079 135.315 29.7079 135.503 29.7079C135.578 29.5424 135.652 29.377 135.728 29.2066C136.056 28.602 136.36 28.2107 136.886 27.7719C137.069 27.7719 137.251 27.7719 137.439 27.7719C137.531 27.498 137.622 27.2242 137.716 26.9421C138.669 26.1124 138.669 26.1124 139.375 26.1124C139.467 25.8386 139.558 25.5648 139.652 25.2827C140.194 24.7782 140.194 24.7782 140.862 24.2628C141.081 24.0906 141.3 23.9184 141.525 23.741C142.141 23.3467 142.141 23.3467 142.971 23.3467C143.062 23.0729 143.153 22.7991 143.247 22.5169C144.679 21.2965 146.307 20.3822 148 19.5794C148.766 19.2044 149.51 18.7973 150.255 18.3835C152.381 17.2109 154.493 16.3714 156.8 15.6026C157.261 15.4191 157.722 15.2347 158.182 15.0495C159.744 14.5091 161.23 14.1291 162.882 14.0285C163.45 13.973 163.45 13.973 163.947 13.6677C164.762 13.2885 165.481 13.2914 166.376 13.2517C167.581 13.183 168.724 13.0812 169.902 12.8196C172.562 12.2488 174.987 12.5995 177.387 13.9086C179.021 15.2635 179.849 16.7834 180.141 18.875C180.26 21.0351 179.791 22.5323 178.372 24.1764C176.975 25.4595 175.58 26.0242 173.716 26.2993C173.069 26.3787 173.069 26.3787 172.288 26.6656C171.59 26.7083 170.894 26.7415 170.196 26.7693C168.385 26.8606 166.808 27.1505 165.097 27.7719C163.7 28.2052 162.397 28.4491 160.948 28.6016C160.948 28.7841 160.948 28.9667 160.948 29.1547C160.721 29.2353 160.493 29.3159 160.259 29.3989C158.213 30.1503 156.409 31.0078 154.587 32.197C154.077 32.5277 153.567 32.8578 153.056 33.1875C152.711 33.4107 152.367 33.6352 152.024 33.8611C151.314 34.3245 150.694 34.6931 149.885 34.9628C149.794 35.2366 149.703 35.5104 149.609 35.7925C149.045 36.2895 149.045 36.2895 148.329 36.8296C146.156 38.5318 144.548 40.3583 142.948 42.602C142.773 42.8192 142.598 43.0363 142.418 43.26C142.235 43.26 142.053 43.26 141.865 43.26C141.839 43.4069 141.813 43.5538 141.786 43.7051C141.523 44.5831 141.097 45.3031 140.637 46.0949C140.467 46.3929 140.296 46.691 140.12 46.9981C139.965 47.2248 139.811 47.4515 139.652 47.6852C139.469 47.6852 139.287 47.6852 139.099 47.6852C139.053 47.9253 139.053 47.9253 139.007 48.1703C138.436 50.0916 136.662 51.6752 135.002 52.6948C133.663 53.2375 131.861 53.1901 130.493 52.7532C130.041 52.5252 130.041 52.5252 129.419 52.1103C129.419 51.9278 129.419 51.7453 129.419 51.5572C129.253 51.4898 129.088 51.4224 128.917 51.353C128.199 50.9387 127.924 50.5431 127.483 49.8459C127.342 49.6245 127.202 49.4031 127.057 49.175C126.857 48.8482 126.857 48.8482 126.653 48.5149C126.537 48.3284 126.421 48.142 126.301 47.9499C125.826 47.1597 125.547 46.6869 125.547 45.7491C125.364 45.7491 125.182 45.7491 124.994 45.7491C124.711 45.3343 124.45 44.9044 124.198 44.47C123.352 43.0987 122.413 41.8724 121.364 40.6498C121.155 40.4048 121.155 40.4048 120.942 40.1549C120.145 39.2381 119.329 38.4648 118.356 37.7285C117.716 37.1408 117.716 37.1408 117.25 36.6222C117.25 36.4397 117.25 36.2571 117.25 36.0691C117.1 36.0028 116.951 35.9364 116.797 35.8681C115.974 35.4247 115.275 34.8774 114.536 34.3059C113.364 33.4098 112.197 32.6045 110.888 31.9205C110.888 31.7379 110.888 31.5554 110.888 31.3673C110.555 31.3416 110.555 31.3416 110.214 31.3155C109.11 31.0636 108.326 30.6221 107.354 30.059C105.892 29.2239 104.458 28.7607 102.818 28.4438C102.315 28.325 102.315 28.325 102.038 28.0484C101.146 27.8985 100.251 27.7813 99.3543 27.6606C98.4425 27.4953 98.4425 27.4953 97.8616 27.2136C96.7014 26.8209 95.5962 26.8577 94.3792 26.8589C94.1189 26.8578 93.8587 26.8566 93.5905 26.8554C93.0398 26.8538 92.4891 26.8536 91.9383 26.8548C91.1056 26.8557 90.2731 26.8492 89.4403 26.8422C86.6672 26.8334 84.2296 26.9369 81.5715 27.7719C81.2406 27.8118 80.9098 27.8517 80.5689 27.8929C79.4788 28.0745 78.563 28.4433 77.5482 28.8717C76.9911 29.1041 76.4216 29.3066 75.8499 29.5004C74.1495 30.1295 72.5722 31.0661 70.9858 31.9363C70.5871 32.1541 70.1862 32.3678 69.7847 32.5806C67.3414 33.8892 65.1742 35.541 63.0497 37.3126C62.4879 37.7285 62.4879 37.7285 61.9347 37.7285C61.7978 38.1392 61.7978 38.1392 61.6582 38.5582C61.2638 38.9364 61.2638 38.9364 60.742 39.3534C58.0784 41.6201 55.2134 44.5334 53.6375 47.6852C53.455 47.6852 53.2725 47.6852 53.0844 47.6852C53.0109 47.8862 52.9375 48.0873 52.8618 48.2945C52.531 49.0685 52.1417 49.6884 51.6669 50.3818C50.459 52.2477 49.5466 54.2208 48.6387 56.2442C48.4112 56.7487 48.177 57.2501 47.9418 57.7509C45.4441 63.2446 44.1155 69.1137 43.5231 75.0941C43.4043 76.1723 43.4043 76.1723 43.2617 76.8504C43.1321 77.532 43.0875 78.1537 43.0788 78.8464C43.0735 79.2201 43.0735 79.2201 43.0682 79.6014C43.0661 79.8688 43.064 80.1361 43.0618 80.4116C43.0591 80.692 43.0565 80.9724 43.0537 81.2612C43.0468 82.1693 43.0433 83.0774 43.0413 83.9855C43.0402 84.447 43.0402 84.447 43.0391 84.9178C43.038 89.3836 43.1725 93.6625 44.234 98.0216C44.2798 98.2194 44.3256 98.4172 44.3727 98.6209C44.6532 99.8179 44.9874 100.993 45.3403 102.17C45.4472 102.553 45.5534 102.936 45.659 103.32C46.3064 105.639 47.0692 107.873 47.9969 110.095C48.3156 110.86 48.6111 111.628 48.9012 112.403C49.6638 114.326 50.7072 116.125 51.7015 117.935C52.5458 117.979 52.5458 117.979 53.361 117.658C53.4522 117.385 53.5435 117.111 53.6375 116.829C53.8201 116.829 54.0026 116.829 54.1907 116.829C54.282 116.555 54.3732 116.281 54.4673 115.999C55.0031 115.394 55.0031 115.394 55.5736 114.893C55.7561 114.893 55.9386 114.893 56.1267 114.893C56.218 114.619 56.3092 114.345 56.4033 114.063C56.5858 114.063 56.7684 114.063 56.9564 114.063C57.0477 113.789 57.139 113.515 57.233 113.233C57.6865 112.855 58.1488 112.488 58.6159 112.127C59.3901 111.392 60.0972 110.631 60.7766 109.811C61.3666 109.112 61.9793 108.509 62.677 107.919C63.892 106.869 65.0243 105.75 66.1525 104.608C66.3443 104.414 66.5361 104.221 66.7337 104.022C66.9198 103.835 67.1059 103.648 67.2977 103.455C67.4726 103.279 67.6474 103.103 67.8276 102.922C68.2057 102.538 68.578 102.149 68.9485 101.759C69.4022 101.34 69.4022 101.34 69.9554 101.34C70.0467 101.067 70.1379 100.793 70.232 100.511C70.4259 100.357 70.6199 100.203 70.8197 100.044C71.4891 99.5056 71.9665 99.0176 72.5137 98.3673C75.4598 94.9313 75.4598 94.9313 77.1463 94.7027C77.7391 94.6702 78.333 94.6543 78.9268 94.6509C79.2344 94.6469 79.5421 94.643 79.8591 94.639C82.0721 94.7988 83.6909 96.165 85.0978 97.7796C85.2504 97.9628 85.403 98.1461 85.5602 98.3349C85.9848 98.8564 85.9848 98.8564 86.4677 99.2986C86.8264 99.681 86.8264 99.681 86.8264 100.234C87.1002 100.325 87.374 100.417 87.6561 100.511C88.0264 100.97 88.3949 101.432 88.7624 101.894C89.1644 102.224 89.5666 102.554 89.9724 102.88C90.6596 103.486 91.2281 104.184 91.8198 104.882C92.6231 105.788 93.4964 106.62 94.3706 107.458C94.847 107.978 94.847 107.978 94.847 108.531C95.092 108.563 95.092 108.563 95.3418 108.596C96.1571 108.879 96.3933 109.284 96.8868 109.983C97.4856 110.797 98.0455 111.484 98.8401 112.11C99.0739 112.298 99.3078 112.486 99.5488 112.68C99.5488 112.863 99.5488 113.045 99.5488 113.233C99.7798 113.327 99.7798 113.327 100.016 113.423C101.121 114.051 101.911 114.787 102.315 115.999C102.588 116.09 102.862 116.181 103.144 116.275C103.561 116.699 103.561 116.699 104.009 117.243C104.775 118.145 105.565 119.009 106.394 119.854C106.598 120.061 106.802 120.269 107.012 120.483C107.561 121.035 107.561 121.035 108.399 121.254C108.399 121.071 108.399 120.889 108.399 120.701C108.796 120.311 108.796 120.311 109.35 119.854C110.498 118.883 111.54 117.837 112.58 116.752C113.101 116.275 113.101 116.275 113.654 116.275C113.724 116.114 113.794 115.953 113.865 115.787C114.249 115.094 114.667 114.675 115.251 114.142C115.456 113.952 115.662 113.762 115.873 113.566C116.088 113.371 116.302 113.175 116.523 112.974C117.781 111.823 118.975 110.717 120.015 109.361C120.324 109.075 120.641 108.798 120.966 108.531C122.258 107.434 123.432 106.229 124.608 105.01C125.003 104.607 125.412 104.217 125.823 103.83C126.006 103.83 126.188 103.83 126.376 103.83C126.451 103.664 126.525 103.499 126.601 103.328C126.929 102.724 127.233 102.332 127.759 101.894C127.942 101.894 128.124 101.894 128.312 101.894C128.384 101.729 128.455 101.563 128.529 101.393C128.893 100.737 129.249 100.405 129.834 99.9403C130.508 99.4021 130.863 99.0355 131.355 98.2982C131.537 98.2982 131.72 98.2982 131.908 98.2982C131.999 98.0244 132.09 97.7506 132.184 97.4685C132.367 97.4685 132.55 97.4685 132.738 97.4685C132.829 97.1946 132.92 96.9208 133.014 96.6387C133.471 96.2643 133.932 95.8956 134.397 95.5324C134.58 95.2586 134.762 94.9848 134.95 94.7027C135.133 94.7027 135.315 94.7027 135.503 94.7027C135.595 94.4289 135.686 94.1551 135.78 93.873C136.24 93.5027 136.701 93.1342 137.163 92.7667C137.417 92.4723 137.665 92.1725 137.906 91.8678C138.117 91.6168 138.328 91.3659 138.546 91.1073C138.728 91.1073 138.911 91.1073 139.099 91.1073C139.168 90.9478 139.237 90.7883 139.308 90.6241C139.7 89.9139 140.147 89.4478 140.727 88.8817C140.941 88.6706 141.155 88.4596 141.376 88.2421C141.6 88.0239 141.824 87.8057 142.055 87.5809C143.47 86.1972 144.852 84.8152 146.125 83.2986C146.607 82.7647 147.124 82.306 147.673 81.842C148.64 81.0228 149.457 80.1358 150.276 79.1714C150.85 78.5044 151.468 77.8923 152.098 77.2786C152.241 77.1292 152.384 76.9798 152.532 76.8259C152.93 76.4134 153.343 76.0151 153.757 75.6191C153.94 75.6191 154.122 75.6191 154.31 75.6191C154.31 75.4366 154.31 75.254 154.31 75.066C154.493 75.066 154.675 75.066 154.864 75.066C154.971 74.8211 154.971 74.8211 155.081 74.5713C155.442 73.9142 155.814 73.5253 156.368 73.0241C156.553 72.8554 156.737 72.6868 156.926 72.5131C157.118 72.3402 157.31 72.1672 157.508 71.9891C157.89 71.6434 158.27 71.297 158.65 70.9498C158.819 70.7975 158.988 70.6452 159.162 70.4883C159.596 70.0998 159.596 70.0998 159.842 69.5345C160.024 69.5345 160.207 69.5345 160.395 69.5345C160.458 69.3783 160.522 69.2222 160.587 69.0613C161.044 68.2599 161.607 67.7605 162.296 67.149C162.535 66.9344 162.774 66.7198 163.02 66.4987C163.714 65.939 163.714 65.939 164.338 65.6387C164.921 65.4042 164.921 65.4042 165.097 64.5562C165.553 64.1817 166.014 63.8131 166.48 63.4499C166.662 63.1761 166.845 62.9023 167.033 62.6202C167.215 62.6202 167.398 62.6202 167.586 62.6202C167.677 62.3463 167.768 62.0725 167.863 61.7904C168.045 61.7904 168.228 61.7904 168.416 61.7904C168.49 61.625 168.564 61.4596 168.64 61.2891C168.969 60.6846 169.272 60.2932 169.799 59.8544C169.981 59.8544 170.164 59.8544 170.352 59.8544C170.443 59.5806 170.534 59.3068 170.628 59.0247C170.811 59.0247 170.993 59.0247 171.181 59.0247C171.273 58.7509 171.364 58.4771 171.458 58.195C171.994 57.59 171.994 57.59 172.564 57.0887C172.747 57.0887 172.929 57.0887 173.117 57.0887C173.209 56.8149 173.3 56.5411 173.394 56.259C173.577 56.259 173.759 56.259 173.947 56.259C174.038 55.9851 174.13 55.7113 174.224 55.4292C174.76 54.8242 174.76 54.8242 175.33 54.3229C175.513 54.3229 175.695 54.3229 175.883 54.3229C175.946 54.1689 176.009 54.0149 176.073 53.8562C176.701 52.7508 177.437 51.9611 178.649 51.5572C178.74 51.2834 178.831 51.0096 178.925 50.7275C179.108 50.7275 179.291 50.7275 179.479 50.7275C179.553 50.5621 179.627 50.3966 179.703 50.2262C180.032 49.6216 180.335 49.2303 180.861 48.7915C181.044 48.7915 181.227 48.7915 181.415 48.7915C181.472 48.6428 181.53 48.4941 181.59 48.3409C182.114 47.4323 182.843 46.7634 183.593 46.043C184.758 44.9204 184.758 44.9204 185.807 43.691C186.304 43.0912 186.765 42.6464 187.354 42.1472C188.369 41.2799 189.308 40.3516 190.237 39.3944C190.382 39.2459 190.527 39.0974 190.676 38.9443C191.279 38.3266 191.882 37.7086 192.479 37.0851C196.578 32.8134 196.578 32.8134 199.807 32.5773C202.009 32.6955 203.705 33.6076 205.183 35.2221C205.472 35.591 205.756 35.965 206.03 36.3456C206.295 36.7136 206.295 36.7136 206.566 37.0889C207.107 38.7762 207.255 40.6319 206.574 42.2995C205.54 43.9339 204.106 45.2551 202.711 46.5789C202.561 46.7393 202.411 46.8997 202.256 47.065C201.881 47.4086 201.881 47.4086 201.328 47.4086C201.228 47.6433 201.228 47.6433 201.126 47.8828C200.703 48.6442 200.196 49.1619 199.579 49.7776C199.332 50.026 199.084 50.2744 198.829 50.5303C198.558 50.7995 198.287 51.0687 198.016 51.3379C197.736 51.6168 197.457 51.8958 197.178 52.1749C196.593 52.76 196.006 53.3442 195.419 53.9276C194.672 54.6701 193.927 55.4143 193.182 56.1592C192.605 56.7361 192.027 57.3123 191.449 57.8883C191.174 58.1621 190.9 58.4361 190.626 58.7103C189.217 60.1169 187.8 61.4962 186.285 62.7888C185.641 63.3452 185.051 63.9472 184.457 64.5562C184.161 64.8482 184.161 64.8482 183.858 65.146C182.571 66.4076 182.571 66.4076 181.397 67.7713C180.908 68.3712 180.43 68.8123 179.842 69.3098C178.704 70.278 177.736 71.3541 176.761 72.485C176.143 73.1475 175.487 73.6747 174.777 74.2363C173.805 75.1811 172.888 76.1652 171.98 77.1707C170.583 78.7049 169.139 80.1848 167.665 81.6455C167.245 82.0615 166.827 82.4784 166.408 82.8955C165.522 83.7782 164.636 84.6598 163.748 85.5412C162.713 86.5703 161.678 87.5999 160.644 88.6307C160.234 89.0384 159.824 89.4453 159.413 89.8522C157.906 91.3464 157.906 91.3464 156.516 92.9473C156.336 93.1615 156.156 93.3757 155.97 93.5964C155.787 93.5964 155.605 93.5964 155.417 93.5964C155.325 93.8702 155.234 94.144 155.14 94.4261C154.958 94.4261 154.775 94.4261 154.587 94.4261C154.496 94.6999 154.404 94.9738 154.31 95.2559C153.775 95.8609 153.775 95.8609 153.204 96.3622C153.022 96.3622 152.839 96.3622 152.651 96.3622C152.56 96.636 152.468 96.9098 152.374 97.1919C152.192 97.1919 152.009 97.1919 151.821 97.1919C151.73 97.4657 151.639 97.7395 151.545 98.0216C151.082 98.4678 151.082 98.4678 150.508 98.9378C149.8 99.5351 149.165 100.114 148.589 100.839C147.967 101.596 147.328 102.114 146.566 102.723C146.338 102.997 146.11 103.271 145.875 103.553C145.229 104.328 144.584 104.863 143.801 105.489C143.572 105.763 143.344 106.037 143.109 106.319C142.463 107.094 141.818 107.628 141.035 108.255C140.807 108.529 140.579 108.802 140.343 109.085C139.698 109.86 139.052 110.394 138.269 111.021C138.041 111.294 137.813 111.568 137.578 111.85C136.931 112.626 136.297 113.171 135.503 113.786C134.459 114.776 133.533 115.843 132.613 116.946C132.472 117.09 132.33 117.234 132.184 117.382C132.002 117.382 131.819 117.382 131.631 117.382C131.54 117.656 131.449 117.929 131.355 118.211C130.895 118.582 130.434 118.95 129.972 119.318C129.718 119.612 129.47 119.912 129.229 120.217C129.018 120.468 128.806 120.719 128.589 120.977C128.406 120.977 128.224 120.977 128.036 120.977C127.962 121.143 127.888 121.308 127.811 121.479C127.483 122.083 127.18 122.474 126.653 122.913C126.47 122.913 126.288 122.913 126.1 122.913C126.009 123.187 125.917 123.461 125.823 123.743C125.641 123.743 125.458 123.743 125.27 123.743C125.179 124.017 125.088 124.291 124.994 124.573C124.811 124.573 124.628 124.573 124.44 124.573C124.258 124.938 124.075 125.303 123.887 125.679C123.705 125.679 123.522 125.679 123.334 125.679C123.243 125.953 123.152 126.227 123.058 126.509C122.875 126.509 122.692 126.509 122.504 126.509C122.413 126.783 122.322 127.056 122.228 127.338C122.045 127.338 121.863 127.338 121.675 127.338C121.601 127.504 121.526 127.669 121.45 127.84C121.122 128.444 120.818 128.836 120.292 129.274C120.109 129.274 119.927 129.274 119.739 129.274C119.647 129.548 119.556 129.822 119.462 130.104C118.681 130.97 118.004 131.525 116.973 132.04C116.882 132.314 116.79 132.588 116.696 132.87C116.238 133.242 115.777 133.61 115.313 133.976C115.146 134.193 114.979 134.41 114.807 134.633C114.171 135.402 113.531 135.921 112.721 136.5C112.467 136.683 112.214 136.866 111.954 137.055C109.999 138.335 108.508 138.721 106.187 138.401C105.259 138.058 104.497 137.595 103.697 137.019C103.424 136.825 103.15 136.631 102.868 136.431C101.835 135.528 101.016 134.419 100.17 133.345C99.5397 132.582 98.8695 131.906 98.1659 131.21C97.8893 130.934 97.6129 130.658 97.3366 130.381C97.1899 130.234 97.0432 130.088 96.892 129.937C93.7952 126.84 93.7952 126.84 90.6984 123.743C90.5459 123.602 90.3934 123.461 90.2362 123.315C89.8687 122.913 89.8687 122.913 89.8687 122.36C89.7047 122.29 89.5407 122.22 89.3717 122.147C88.6949 121.769 88.3493 121.387 87.8635 120.787C87.2276 120.036 86.5939 119.364 85.8411 118.73C84.709 117.769 83.659 116.736 82.6086 115.688C82.4419 115.522 82.2752 115.357 82.1035 115.186C81.3956 114.476 80.7346 113.777 80.1108 112.99C79.5919 112.35 79.3356 112.213 78.5292 112.127C78.5292 112.309 78.5292 112.492 78.5292 112.68C78.1255 113.02 77.7206 113.358 77.3084 113.687C76.7029 114.206 76.2485 114.815 75.7634 115.446C75.1757 116.085 75.1757 116.085 74.6571 116.552C74.4746 116.552 74.2921 116.552 74.104 116.552C74.0127 116.826 73.9215 117.1 73.8274 117.382C73.3739 117.76 72.9117 118.127 72.4446 118.488C71.7668 119.149 71.1073 119.823 70.4567 120.511C69.9554 120.977 69.9554 120.977 69.4022 120.977C69.3281 121.143 69.2539 121.308 69.1775 121.479C68.8493 122.083 68.546 122.474 68.0194 122.913C67.8368 122.913 67.6543 122.913 67.4662 122.913C67.375 123.187 67.2837 123.461 67.1897 123.743C67.0071 123.743 66.8246 123.743 66.6365 123.743C66.5795 123.891 66.5224 124.04 66.4636 124.192C65.9361 125.104 65.2403 125.843 64.4239 126.509C64.2414 126.509 64.0588 126.509 63.8708 126.509C63.7795 126.783 63.6882 127.056 63.5942 127.338C63.4117 127.338 63.2291 127.338 63.041 127.338C62.9669 127.504 62.8927 127.669 62.8163 127.84C62.4881 128.444 62.1848 128.836 61.6582 129.274C61.4756 129.274 61.2931 129.274 61.105 129.274C61.0138 129.548 60.9225 129.822 60.8285 130.104C60.6459 130.104 60.4634 130.104 60.2753 130.104C60.184 130.378 60.0928 130.652 59.9987 130.934C59.8162 130.934 59.6337 130.934 59.4456 130.934C60.0835 132.21 61.0085 133.074 62.0331 134.04C62.4879 134.529 62.4879 134.529 62.4879 135.082C62.6704 135.082 62.853 135.082 63.041 135.082C63.6288 135.601 63.6288 135.601 64.1473 136.189C64.1473 136.371 64.1473 136.554 64.1473 136.742C64.4211 136.833 64.695 136.924 64.9771 137.019C65.4445 137.473 65.9042 137.935 66.3599 138.401C66.8752 138.838 67.3955 139.268 67.9211 139.692C68.0448 139.814 68.1685 139.936 68.2959 140.061C68.2959 140.243 68.2959 140.426 68.2959 140.614C68.4571 140.688 68.6182 140.762 68.7843 140.839C69.4099 141.171 69.9017 141.537 70.4394 141.997C70.6091 142.139 70.7788 142.282 70.9536 142.429C71.3383 142.827 71.3383 142.827 71.3383 143.38C71.6121 143.38 71.8859 143.38 72.168 143.38C72.773 143.898 72.773 143.898 73.2743 144.486C73.2743 144.669 73.2743 144.851 73.2743 145.039C73.5481 145.13 73.8219 145.222 74.104 145.316C75.2502 147.035 75.3968 149.061 75.0201 151.055C74.7256 152.183 74.2897 152.989 73.5508 153.89C73.3683 153.89 73.1858 153.89 72.9977 153.89C72.9064 154.163 72.8152 154.437 72.7211 154.719C70.7119 156.154 68.4516 156.108 66.0834 155.826C65.1344 155.49 64.3879 155.055 63.5942 154.443C63.3903 154.302 63.1863 154.161 62.9762 154.016C62.8151 153.883 62.6539 153.75 62.4879 153.613C62.4879 153.43 62.4879 153.248 62.4879 153.06C62.2398 152.94 62.2398 152.94 61.9866 152.818C61.3816 152.507 61.3816 152.507 60.5519 151.953C60.5519 151.771 60.5519 151.588 60.5519 151.4C60.3936 151.33 60.2353 151.259 60.0722 151.186C57.8798 149.999 56.0551 147.766 54.2944 146.024C54.0943 145.828 53.8942 145.631 53.688 145.429C53.5024 145.244 53.3167 145.058 53.1254 144.867C52.9577 144.701 52.7899 144.534 52.617 144.362C52.2547 143.933 52.2547 143.933 52.2547 143.38C51.9809 143.288 51.7071 143.197 51.4249 143.103C51.4249 142.829 51.4249 142.556 51.4249 142.273C51.1511 142.182 50.8773 142.091 50.5952 141.997C50.0907 141.505 50.0907 141.505 49.5754 140.908C49.3171 140.613 49.3171 140.613 49.0535 140.313C48.6592 139.784 48.6592 139.784 48.6592 139.231C48.3854 139.14 48.1116 139.049 47.8295 138.955C47.5389 138.502 47.2656 138.039 46.9998 137.572C46.5241 136.893 46.0258 136.231 45.5305 135.566C42.6376 131.649 40.3963 127.501 38.1494 123.19C38.0018 122.907 37.8542 122.624 37.7021 122.332C37.0329 121.023 36.4574 119.698 35.926 118.327C35.6775 117.702 35.4066 117.094 35.1244 116.483C33.8303 113.586 32.9378 110.581 32.1166 107.525C31.8393 106.493 31.5305 105.473 31.2178 104.452C26.6582 88.3918 27.9616 69.1401 34.2774 53.7698C34.3514 53.5875 34.4255 53.4052 34.5018 53.2175C35.4828 50.824 36.6032 48.573 37.9204 46.3477C38.3493 45.6053 38.7234 44.8669 39.0828 44.0897C40.0129 42.1891 41.3131 40.5239 42.5746 38.8348C42.7024 38.6618 42.8303 38.4889 42.962 38.3107C43.3376 37.8037 43.716 37.2989 44.0957 36.7951C44.2704 36.5604 44.2704 36.5604 44.4487 36.321C44.7326 35.9498 45.0349 35.593 45.3403 35.2393C45.5229 35.2393 45.7054 35.2393 45.8935 35.2393C45.9651 35.0796 46.0368 34.9199 46.1106 34.7553C46.4724 34.0852 46.886 33.5898 47.3973 33.0268C47.9066 32.4636 48.3846 31.9177 48.8245 31.2982C48.9525 31.1384 49.0805 30.9787 49.2124 30.8142C49.3949 30.8142 49.5774 30.8142 49.7655 30.8142C49.8225 30.6616 49.8796 30.509 49.9384 30.3518C50.4603 29.468 51.1918 28.8938 51.9781 28.2559C52.1293 28.1289 52.2804 28.002 52.4362 27.8712C53.5644 26.9421 53.5644 26.9421 54.1907 26.9421C54.282 26.6683 54.3732 26.3945 54.4673 26.1124C55.013 25.7328 55.5668 25.3645 56.1267 25.0061C56.2807 24.8464 56.4347 24.6867 56.5934 24.5221C56.9564 24.1764 56.9564 24.1764 57.7861 24.1764C57.8774 23.9026 57.9687 23.6288 58.0627 23.3467C58.3365 23.3467 58.6103 23.3467 58.8924 23.3467C58.9837 23.0729 59.075 22.7991 59.169 22.5169C60.623 21.4107 60.623 21.4107 61.6582 21.4107C61.6582 21.2281 61.6582 21.0456 61.6582 20.8575C62.2058 20.7662 62.357 20.4229 62.9212 20.3289C63.0581 19.9182 63.4545 20.1702 63.5942 19.7512C64.044 19.4627 64.044 19.4627 64.6205 19.2056C64.828 19.111 65.0355 19.0163 65.2493 18.9188C65.4675 18.8227 65.6857 18.7266 65.9105 18.6276C66.3393 18.4348 66.7679 18.2414 67.1961 18.0475C67.4824 17.9207 67.4824 17.9207 67.7745 17.7914C68.3651 17.5197 68.3651 17.5197 69.1257 16.9855C69.6775 16.7971 70.231 16.6137 70.7851 16.4323C71.2235 16.2491 71.6614 16.0646 72.0988 15.8792C73.2878 15.3943 74.4348 15.1111 75.7008 14.909C76.3219 14.798 76.3219 14.798 76.8622 14.4995C77.5138 14.1744 78.1074 14.0543 78.823 13.9259C79.5888 13.7865 80.2777 13.6369 81.0183 13.39C81.4079 13.3349 81.7989 13.2898 82.1905 13.2517C82.4175 13.2289 82.6444 13.2061 82.8782 13.1826C83.1144 13.1598 83.3506 13.1369 83.5939 13.1134C85.3349 12.953 85.3349 12.953 87.0608 12.6845C88.4654 12.4844 89.8693 12.5093 91.2861 12.5084Z" fill="#F7DC09"/>
<path d="M23.6638 195.618C24.2748 196.158 24.811 196.712 25.3233 197.346C25.9541 198.11 26.5838 198.644 27.363 199.248C28.3686 200.203 29.2781 201.196 30.1288 202.29C30.1288 202.472 30.1288 202.655 30.1288 202.843C30.2942 202.917 30.4596 202.991 30.63 203.068C31.2346 203.396 31.6259 203.699 32.0648 204.226C32.0648 204.408 32.0648 204.591 32.0648 204.779C32.4755 204.916 32.4755 204.916 32.8945 205.056C32.8945 205.238 32.8945 205.421 32.8945 205.609C33.3052 205.746 33.3052 205.746 33.7242 205.885C33.7242 206.068 33.7242 206.25 33.7242 206.439C33.8896 206.513 34.0551 206.587 34.2255 206.663C34.8301 206.991 35.2214 207.295 35.6602 207.821C35.6602 208.004 35.6602 208.186 35.6602 208.375C36.0709 208.511 36.0709 208.511 36.49 208.651C36.49 208.834 36.49 209.016 36.49 209.204C36.9007 209.341 36.9007 209.341 37.3197 209.481C37.3197 209.663 37.3197 209.846 37.3197 210.034C37.6848 210.217 38.0498 210.399 38.426 210.587C38.426 210.77 38.426 210.952 38.426 211.14C38.6998 211.232 38.9736 211.323 39.2557 211.417C39.2557 211.599 39.2557 211.782 39.2557 211.97C39.5295 212.061 39.8033 212.153 40.0854 212.247C40.0854 212.429 40.0854 212.612 40.0854 212.8C40.4505 212.982 40.8156 213.165 41.1917 213.353C41.1917 213.535 41.1917 213.718 41.1917 213.906C41.4655 213.997 41.7393 214.089 42.0214 214.183C42.0214 214.365 42.0214 214.548 42.0214 214.736C42.2952 214.827 42.569 214.918 42.8512 215.012C43.2215 215.472 43.59 215.933 43.9574 216.395C44.2313 216.623 44.5051 216.852 44.7872 217.087C45.5622 217.732 46.0968 218.378 46.7232 219.161C46.997 219.389 47.2708 219.617 47.5529 219.852C48.3264 220.497 48.8662 221.143 49.4889 221.927C49.8226 222.192 49.8226 222.192 50.1631 222.463C50.9843 223.124 51.5807 223.884 52.2547 224.692C52.4828 224.875 52.711 225.057 52.9461 225.246C53.7644 225.9 54.3585 226.647 55.0204 227.458C55.6428 228.097 56.2775 228.72 56.9208 229.338C57.098 229.511 57.2751 229.683 57.4577 229.861C57.6249 230.022 57.7921 230.182 57.9644 230.348C58.3393 230.777 58.3393 230.777 58.3393 231.33C58.6131 231.421 58.8869 231.513 59.169 231.607C59.774 232.143 59.774 232.143 60.2753 232.713C60.2753 232.896 60.2753 233.078 60.2753 233.266C60.5491 233.357 60.8229 233.449 61.105 233.543C61.105 233.725 61.105 233.908 61.105 234.096C61.3788 234.187 61.6526 234.278 61.9347 234.372C61.9347 234.555 61.9347 234.738 61.9347 234.926C62.2998 235.108 62.6649 235.291 63.041 235.479C63.041 235.661 63.041 235.844 63.041 236.032C63.2061 236.103 63.3712 236.175 63.5412 236.248C64.1974 236.613 64.5301 236.969 64.9943 237.553C65.5326 238.227 65.8991 238.583 66.6365 239.074C66.6365 239.257 66.6365 239.439 66.6365 239.627C66.9103 239.719 67.1841 239.81 67.4662 239.904C67.4662 240.087 67.4662 240.269 67.4662 240.457C67.6209 240.521 67.7757 240.585 67.9351 240.65C68.7402 241.105 69.2801 241.676 69.9208 242.341C71.0154 243.467 71.0154 243.467 72.2198 244.467C73.3443 245.467 74.1213 246.666 74.9337 247.925C75.1615 248.257 75.1615 248.257 75.3939 248.597C76.1099 249.974 76.0338 251.402 75.7634 252.903C75.1628 254.048 74.4032 254.979 73.5508 255.945C73.297 256.268 73.0434 256.59 72.7903 256.913C72.2433 257.521 71.7549 258.004 71.0617 258.434C70.8791 258.434 70.6966 258.434 70.5085 258.434C70.4344 258.6 70.3602 258.765 70.2838 258.936C69.9556 259.54 69.6523 259.932 69.1257 260.37C68.9431 260.37 68.7606 260.37 68.5725 260.37C68.4812 260.644 68.39 260.918 68.2959 261.2C68.1134 261.2 67.9309 261.2 67.7428 261.2C67.6686 261.366 67.5945 261.531 67.5181 261.701C67.1899 262.306 66.8865 262.697 66.3599 263.136C66.1774 263.136 65.9948 263.136 65.8068 263.136C65.7155 263.41 65.6242 263.684 65.5302 263.966C65.3477 263.966 65.1651 263.966 64.9771 263.966C64.8858 264.24 64.7945 264.514 64.7005 264.796C64.4267 264.796 64.1529 264.796 63.8708 264.796C63.8708 264.978 63.8708 265.161 63.8708 265.349C60.4777 266.851 60.4777 266.851 58.792 266.204C58.1714 265.934 57.5622 265.65 56.9564 265.349C56.9564 265.166 56.9564 264.984 56.9564 264.796C56.6826 264.796 56.4088 264.796 56.1267 264.796C55.6222 264.331 55.6222 264.331 55.1068 263.724C54.8485 263.425 54.8485 263.425 54.585 263.121C54.1907 262.583 54.1907 262.583 54.1907 262.03C53.9169 261.939 53.6431 261.847 53.361 261.753C53.361 261.571 53.361 261.388 53.361 261.2C53.0871 261.109 52.8133 261.018 52.5312 260.924C51.9262 260.388 51.9262 260.388 51.4249 259.817C51.4249 259.635 51.4249 259.452 51.4249 259.264C51.1511 259.173 50.8773 259.082 50.5952 258.988C50.2173 258.534 49.8499 258.072 49.4889 257.605C49.0323 257.139 48.5704 256.679 48.1061 256.222C47.802 255.919 47.498 255.617 47.1943 255.314C46.845 254.966 46.4957 254.619 46.1465 254.271C44.2003 252.334 42.2555 250.395 40.3115 248.456C39.1361 247.283 37.9602 246.111 36.7831 244.941C35.6433 243.807 34.505 242.672 33.3675 241.536C32.9334 241.103 32.4988 240.67 32.0637 240.238C31.4578 239.636 30.8537 239.033 30.25 238.429C30.0685 238.249 29.8871 238.07 29.7001 237.885C28.4693 236.648 28.4693 236.648 28.4693 236.032C28.2868 236.032 28.1042 236.032 27.9162 236.032C27.5439 235.654 27.5439 235.654 27.1007 235.114C25.8086 233.596 24.399 232.204 22.9865 230.799C22.7004 230.513 22.4143 230.227 22.1284 229.942C21.3815 229.196 20.6338 228.451 19.8859 227.706C19.1249 226.948 18.3648 226.189 17.6046 225.43C16.2686 224.097 14.9319 222.764 13.5947 221.432C13.3922 221.23 13.1898 221.028 12.9812 220.82C12.7721 220.623 12.563 220.425 12.3475 220.222C11.8749 219.714 11.8749 219.714 11.8749 219.161C11.4642 219.024 11.4642 219.024 11.0452 218.884C11.0452 218.702 11.0452 218.519 11.0452 218.331C10.6801 218.149 10.315 217.966 9.93887 217.778C9.93887 217.596 9.93887 217.413 9.93887 217.225C9.52816 217.088 9.52816 217.088 9.10915 216.948C9.10915 216.766 9.10915 216.583 9.10915 216.395C8.69844 216.258 8.69844 216.258 8.27943 216.119C8.27943 215.936 8.27943 215.754 8.27943 215.565C7.86871 215.429 7.86871 215.429 7.4497 215.289C6.8447 214.753 6.8447 214.753 6.34341 214.183C6.34341 214 6.34341 213.818 6.34341 213.629C6.0696 213.538 5.79579 213.447 5.51369 213.353C4.68397 212.4 4.68397 212.4 4.68397 211.693C4.50143 211.693 4.31889 211.693 4.13082 211.693C3.27503 210.205 2.78086 208.835 3.18766 207.143C3.79415 205.446 4.70899 204.04 6.06684 202.843C6.24937 202.843 6.43191 202.843 6.61998 202.843C6.69057 202.683 6.76117 202.522 6.8339 202.357C7.20794 201.673 7.62597 201.212 8.17571 200.661C8.46877 200.367 8.46877 200.367 8.76775 200.067C8.97168 199.865 9.17561 199.663 9.38572 199.455C9.69162 199.146 9.69162 199.146 10.0037 198.831C10.1991 198.636 10.3944 198.441 10.5957 198.241C10.7747 198.062 10.9537 197.884 11.1381 197.7C11.5983 197.312 11.5983 197.312 12.1515 197.312C12.2427 197.038 12.334 196.764 12.428 196.482C12.6106 196.482 12.7931 196.482 12.9812 196.482C13.0724 196.208 13.1637 195.934 13.2578 195.652C13.8314 195.157 13.8314 195.157 14.5542 194.65C14.7891 194.481 15.0241 194.312 15.2662 194.137C18.1878 192.512 21.2911 193.678 23.6638 195.618Z" fill="#F7DC09"/>
<path d="M221.724 44.9214C225.066 46.9487 227.288 51.2495 228.432 54.8759C228.613 55.3209 228.798 55.7647 228.985 56.2069C229.44 57.3247 229.737 58.4086 229.973 59.5896C230.122 60.2673 230.376 60.8751 230.645 61.5137C230.833 62.1578 231.017 62.8033 231.198 63.4497C231.286 63.7545 231.374 64.0594 231.465 64.3734C232.992 70.0234 233.266 75.7378 233.227 81.5665C233.22 82.613 233.221 83.6594 233.223 84.7059C233.222 85.3833 233.22 86.0607 233.217 86.7381C233.217 87.045 233.218 87.3518 233.218 87.668C233.202 89.4509 233.037 91.1388 232.708 92.8919C232.5 94.0421 232.458 95.1947 232.399 96.3598C232.297 97.2547 232.046 98.002 231.751 98.8511C231.643 99.3851 231.545 99.9211 231.457 100.459C231.228 101.864 231.228 101.864 230.921 102.17C230.838 102.658 230.765 103.149 230.697 103.639C230.409 105.444 229.875 107.092 229.262 108.808C229.123 109.234 228.984 109.66 228.847 110.087C228.486 111.167 228.076 112.221 227.645 113.275C227.411 113.852 227.185 114.433 226.964 115.015C225.983 117.579 224.791 119.964 223.454 122.36C223.246 122.734 223.246 122.734 223.035 123.115C222.809 123.521 222.583 123.926 222.356 124.331C221.963 125.046 221.599 125.775 221.241 126.509C221.059 126.509 220.876 126.509 220.688 126.509C220.614 126.708 220.54 126.908 220.463 127.114C220.135 127.891 219.782 128.578 219.305 129.274C219.123 129.274 218.94 129.274 218.752 129.274C218.729 129.497 218.729 129.497 218.705 129.724C218.37 130.682 217.709 131.317 217.023 132.04C216.891 132.184 216.759 132.328 216.623 132.476C214.616 134.63 212.836 135.733 209.856 135.913C208.292 135.911 207.113 135.242 205.753 134.529C205.753 134.347 205.753 134.164 205.753 133.976C205.514 133.89 205.514 133.89 205.269 133.803C204.392 133.267 203.91 132.709 203.541 131.763C203.34 130.564 203.282 129.383 203.264 128.168C203.258 127.837 203.253 127.506 203.247 127.165C203.941 124.961 205.712 123.213 207.231 121.518C208.488 120.033 209.451 118.35 210.374 116.644C210.894 115.706 211.458 114.797 212.022 113.886C212.397 113.222 212.669 112.559 212.944 111.85C213.113 111.514 213.286 111.18 213.463 110.848C214.333 109.13 214.971 107.308 215.485 105.454C215.71 104.659 215.71 104.659 215.986 104.383C216.112 103.821 216.237 103.259 216.356 102.696C216.568 101.769 216.821 100.857 217.075 99.9402C217.546 98.2261 217.905 96.5059 218.212 94.7554C218.35 93.9736 218.5 93.2447 218.752 92.4899C219.084 89.5789 219.074 86.6514 219.063 83.726C219.062 83.3977 219.062 83.3977 219.062 83.0627C219.051 76.2446 219.051 76.2446 217.922 69.5343C217.823 69.0968 217.725 68.6589 217.629 68.2206C217.564 67.935 217.564 67.935 217.498 67.6437C217.301 66.726 217.136 65.8021 216.972 64.8779C216.831 64.2043 216.831 64.2043 216.263 63.4497C216.232 63.1627 216.201 62.8757 216.169 62.58C215.94 61.2416 215.394 60.2779 214.724 59.1109C214.492 58.702 214.261 58.2918 214.032 57.8804C213.929 57.7016 213.827 57.5227 213.721 57.3384C213.497 56.8119 213.497 56.8119 213.497 55.7056C213.315 55.7056 213.132 55.7056 212.944 55.7056C211.668 53.6033 211.557 51.4808 211.838 49.0679C212.124 48.2717 212.419 47.8044 212.944 47.1318C213.127 47.1318 213.309 47.1318 213.497 47.1318C213.588 46.858 213.68 46.5842 213.774 46.3021C215.9 44.3201 219.034 43.934 221.724 44.9214Z" fill="#F7DC09"/>
<path d="M208.429 1.66655C208.684 1.66509 208.939 1.66364 209.201 1.66214C210.037 1.65852 210.872 1.6609 211.707 1.66371C212.292 1.66315 212.877 1.66235 213.462 1.66131C214.686 1.66009 215.909 1.66185 217.133 1.66574C218.695 1.67046 220.258 1.66774 221.821 1.66277C223.028 1.65976 224.235 1.66073 225.443 1.66288C226.019 1.66343 226.595 1.66276 227.171 1.66082C227.978 1.6587 228.785 1.66195 229.592 1.66655C229.944 1.66403 229.944 1.66403 230.303 1.66146C233.171 1.69147 235.507 2.50815 237.559 4.53965C239.265 6.657 239.578 8.80358 239.571 11.445C239.572 11.7151 239.574 11.9852 239.575 12.2635C239.579 13.1529 239.579 14.0423 239.578 14.9317C239.579 15.5535 239.581 16.1752 239.582 16.797C239.584 18.0996 239.584 19.4022 239.582 20.7048C239.581 22.3672 239.585 24.0295 239.592 25.6919C239.596 26.9763 239.596 28.2607 239.595 29.5451C239.595 30.1576 239.597 30.7701 239.6 31.3826C239.632 39.4717 239.632 39.4717 237.558 41.9441C236.195 43.1447 234.376 44.1601 232.529 44.2453C230.389 43.9295 228.255 43.3359 226.866 41.5681C225.635 39.79 225.348 38.5858 225.358 36.4269C225.358 36.2137 225.358 36.0004 225.358 35.7807C225.359 35.0773 225.361 34.374 225.363 33.6706C225.363 33.1824 225.364 32.6941 225.364 32.2058C225.365 30.9218 225.368 29.6378 225.371 28.3537C225.374 27.043 225.375 25.7323 225.376 24.4216C225.379 21.8507 225.384 19.2798 225.39 16.7089C225.158 16.7073 224.925 16.7056 224.686 16.704C222.485 16.6879 220.284 16.6679 218.083 16.6437C216.952 16.6314 215.82 16.6205 214.689 16.6131C213.595 16.6058 212.501 16.5946 211.407 16.5808C210.992 16.5762 210.577 16.573 210.162 16.5713C206.946 16.5564 203.924 16.5315 201.509 14.1711C199.89 12.3876 199.586 10.7501 199.626 8.4052C199.786 6.32819 200.719 4.78198 202.209 3.38149C204.061 1.90097 206.124 1.65007 208.429 1.66655Z" fill="#F7DC09"/>
</svg>
