<svg width="972" height="969" viewBox="0 0 972 969" fill="none" xmlns="http://www.w3.org/2000/svg">
<path d="M922.782 378.881C933.222 379.045 940.856 381.667 948.605 388.907C957.747 398.739 960.933 406.924 960.933 420.411C960.495 429.367 958.797 437.84 955.949 446.352C954.634 450.312 953.591 454.326 952.547 458.364C951.933 460.411 951.933 460.411 950.933 461.411C950.63 462.842 950.367 464.281 950.121 465.723C948.953 471.826 946.98 477.556 944.933 483.411C944.41 484.972 943.888 486.535 943.371 488.098C943.015 489.164 943.015 489.164 942.652 490.251C942.149 491.763 941.649 493.276 941.152 494.79C939.857 498.72 938.489 502.575 936.933 506.411C935.686 509.987 934.575 513.594 933.496 517.223C931.282 524.629 928.819 531.844 925.902 539.005C925.039 541.149 924.226 543.302 923.433 545.473C922.425 548.207 921.29 550.834 920.058 553.473C918.224 557.504 916.843 561.636 915.496 565.848C913.798 571.128 911.779 576 909.179 580.899C907.75 583.781 906.623 586.71 905.496 589.723C902.967 596.454 900.013 602.917 896.933 609.411C896.213 610.943 895.493 612.476 894.773 614.009C892.831 618.145 890.883 622.278 888.933 626.411C888.273 626.411 887.613 626.411 886.933 626.411C886.802 627.672 886.802 627.672 886.668 628.958C885.818 632.955 884.171 636.142 882.183 639.661C881.452 640.99 880.721 642.319 879.992 643.649C879.637 644.292 879.283 644.935 878.917 645.597C877.624 647.981 876.43 650.408 875.246 652.848C873.448 656.493 871.435 659.892 869.234 663.305C867.776 665.666 866.482 668.085 865.183 670.536C859.463 681.128 852.595 691.025 845.683 700.864C843.953 703.257 843.953 703.257 842.933 705.411C842.273 705.411 841.613 705.411 840.933 705.411C840.603 706.731 840.273 708.051 839.933 709.411C839.273 709.411 838.613 709.411 837.933 709.411C837.665 710.153 837.397 710.896 837.121 711.661C835.981 714.302 834.84 716.266 832.933 718.411C832.273 718.411 831.613 718.411 830.933 718.411C830.603 719.731 830.273 721.051 829.933 722.411C829.273 722.411 828.613 722.411 827.933 722.411C827.273 724.061 826.613 725.711 825.933 727.411C825.273 727.411 824.613 727.411 823.933 727.411C823.683 727.968 823.433 728.525 823.176 729.098C821.724 731.8 819.985 734.026 818.058 736.411C817.38 737.257 816.702 738.102 816.004 738.973C814.068 741.252 812.152 743.406 809.933 745.411C809.273 745.411 808.613 745.411 807.933 745.411C807.273 746.731 806.613 748.051 805.933 749.411C805.273 749.411 804.613 749.411 803.933 749.411C803.603 750.401 803.273 751.391 802.933 752.411C802.273 752.411 801.613 752.411 800.933 752.411C800.727 752.947 800.521 753.483 800.308 754.036C798.401 757.331 795.885 760.005 792.933 762.411C792.273 762.411 791.613 762.411 790.933 762.411C790.603 763.401 790.273 764.391 789.933 765.411C788.294 766.777 786.622 768.106 784.933 769.411C784.067 770.298 783.201 771.185 782.308 772.098C779.933 774.411 779.933 774.411 776.933 775.411C776.933 776.071 776.933 776.731 776.933 777.411C775.472 778.7 775.472 778.7 773.558 780.036C772.932 780.482 772.305 780.928 771.66 781.387C769.933 782.411 769.933 782.411 767.933 782.411C767.603 783.401 767.273 784.391 766.933 785.411C765.943 785.411 764.953 785.411 763.933 785.411C763.603 786.401 763.273 787.391 762.933 788.411C762.273 788.411 761.613 788.411 760.933 788.411C760.603 789.401 760.273 790.391 759.933 791.411C758.323 792.913 758.323 792.913 756.258 794.477C755.512 795.045 754.766 795.613 753.998 796.198C753.213 796.784 752.429 797.37 751.621 797.973C750.848 798.563 750.075 799.153 749.279 799.76C743.467 804.153 743.467 804.153 740.741 805.469C738.755 806.279 738.755 806.279 737.933 808.411C736.203 809.423 734.47 810.431 732.711 811.391C730.791 812.438 730.791 812.438 728.683 814.161C726.933 815.411 726.933 815.411 723.933 815.411C723.933 816.071 723.933 816.731 723.933 817.411C723.089 817.823 722.245 818.236 721.375 818.661C717.81 820.474 714.335 822.414 710.871 824.411C709.973 824.925 709.973 824.925 709.056 825.45C706.416 826.965 703.791 828.497 701.187 830.075C696.298 832.973 690.923 834.792 685.621 836.786C681.654 838.29 677.909 839.886 674.183 841.911C668.962 844.642 663.48 846.161 657.821 847.712C653.775 848.804 653.775 848.804 649.926 850.43C646.764 851.986 643.345 852.609 639.933 853.411C638.657 853.741 637.381 854.071 636.066 854.411C626.961 856.709 618.012 858.145 608.664 859.016C605.214 859.279 605.214 859.279 603.057 859.926C600.404 860.532 597.947 860.546 595.225 860.556C593.501 860.566 593.501 860.566 591.743 860.575C590.501 860.577 589.259 860.578 587.98 860.579C586.048 860.584 586.048 860.584 584.077 860.589C581.343 860.595 578.609 860.597 575.876 860.596C573.102 860.596 570.329 860.603 567.555 860.617C538.893 860.757 538.893 860.757 524.933 858.411C522.455 858.071 519.976 857.737 517.496 857.411C516.28 857.246 515.065 857.081 513.812 856.911C511.029 856.552 508.25 856.217 505.461 855.911C504.329 855.785 504.329 855.785 503.175 855.657C501.727 855.498 500.279 855.344 498.83 855.196C494.346 854.702 490.257 853.664 485.933 852.411C483.544 852.032 481.148 851.699 478.746 851.411C473.229 850.722 467.75 849.91 462.269 848.977C450.811 847.032 439.374 845.232 427.808 844.057C425.023 843.772 422.285 843.487 419.547 842.893C416.761 842.379 414.185 842.277 411.352 842.266C410.257 842.259 409.162 842.253 408.034 842.246C406.86 842.245 405.686 842.244 404.476 842.243C403.259 842.24 402.042 842.236 400.789 842.233C398.216 842.228 395.643 842.225 393.07 842.226C389.146 842.223 385.222 842.205 381.299 842.186C378.795 842.183 376.292 842.181 373.789 842.18C372.621 842.173 371.453 842.166 370.25 842.159C364.094 842.176 358.832 842.649 352.933 844.411C350.688 844.757 348.438 845.071 346.183 845.348C329.842 847.585 313.303 852.906 298.668 860.602C295.535 862.063 292.273 861.934 288.933 861.411C284.716 858.942 281.79 855.068 278.648 851.376C277.16 849.671 275.631 848.097 273.996 846.536C271.933 844.411 271.933 844.411 271.933 842.411C270.943 842.081 269.953 841.751 268.933 841.411C267.567 839.771 266.238 838.1 264.933 836.411C263.29 834.721 261.619 833.059 259.933 831.411C259.226 830.693 258.518 829.975 257.789 829.235C253.233 824.588 253.233 824.588 248.308 820.348C244.762 817.455 241.683 814.072 238.933 810.411C238.933 809.751 238.933 809.091 238.933 808.411C237.943 808.081 236.953 807.751 235.933 807.411C235.933 806.751 235.933 806.091 235.933 805.411C234.943 805.081 233.953 804.751 232.933 804.411C230.746 802.473 230.746 802.473 228.933 800.411C228.933 799.751 228.933 799.091 228.933 798.411C227.943 798.081 226.953 797.751 225.933 797.411C224.594 795.749 223.262 794.081 221.933 792.411C220.47 791.208 219.005 790.005 217.53 788.817C215.862 787.348 214.505 785.804 213.082 784.098C208.072 778.305 202.621 772.949 197.199 767.546C195.368 765.72 193.542 763.889 191.717 762.057C190.538 760.879 189.359 759.702 188.179 758.524C187.373 757.715 187.373 757.715 186.55 756.889C183.975 754.33 181.377 751.925 178.543 749.654C177.682 748.914 176.821 748.173 175.933 747.411C175.933 746.751 175.933 746.091 175.933 745.411C174.943 745.081 173.953 744.751 172.933 744.411C171.594 742.749 170.262 741.081 168.933 739.411C167.869 738.493 166.785 737.597 165.683 736.723C164.322 735.579 164.322 735.579 162.933 734.411C162.933 733.751 162.933 733.091 162.933 732.411C161.943 732.081 160.953 731.751 159.933 731.411C158.5 729.957 158.5 729.957 156.941 728.048C152.206 722.468 147.001 717.371 141.808 712.223C140.822 711.242 139.837 710.261 138.851 709.28C137.039 707.476 135.225 705.673 133.409 703.871C131.699 702.172 129.992 700.468 128.289 698.761C126.607 697.083 124.902 695.427 123.183 693.786C120.933 691.411 120.933 691.411 119.933 688.411C119.273 688.411 118.613 688.411 117.933 688.411C112.933 682.956 112.933 682.956 112.933 679.411C115.358 675.681 118.318 672.979 121.933 670.411C122.593 670.411 123.253 670.411 123.933 670.411C123.933 669.751 123.933 669.091 123.933 668.411C126.895 666.239 129.44 664.575 132.933 663.411C132.933 662.751 132.933 662.091 132.933 661.411C134.669 659.966 136.473 658.602 138.308 657.286C139.306 656.561 140.304 655.837 141.332 655.091C143.933 653.411 143.933 653.411 145.933 653.411C145.933 652.751 145.933 652.091 145.933 651.411C147.253 651.081 148.573 650.751 149.933 650.411C149.933 649.751 149.933 649.091 149.933 648.411C151.515 647.149 151.515 647.149 153.746 645.723C154.568 645.194 155.391 644.664 156.238 644.118C157.127 643.555 158.017 642.991 158.933 642.411C159.823 641.837 160.712 641.264 161.629 640.673C166.974 637.238 172.374 633.911 177.84 630.673C179.566 629.632 181.256 628.529 182.933 627.411C183.923 627.411 184.913 627.411 185.933 627.411C186.263 626.421 186.593 625.431 186.933 624.411C189.524 623.013 192.059 621.782 194.746 620.598C196.308 619.889 197.869 619.178 199.429 618.466C200.199 618.117 200.968 617.769 201.761 617.41C204.646 616.083 207.478 614.663 210.308 613.223C215.784 610.463 221.314 607.867 226.933 605.411C227.731 605.062 228.529 604.712 229.351 604.352C235.309 601.855 241.38 600.067 247.605 598.356C250.369 597.571 253.045 596.696 255.746 595.723C259.455 594.436 262.978 593.955 266.89 593.719C268.975 593.515 268.975 593.515 270.816 592.45C273.515 591.126 276.027 590.786 278.996 590.348C282.132 589.879 284.922 589.415 287.933 588.411C289.634 588.208 291.339 588.046 293.047 587.911C294.048 587.828 295.049 587.746 296.08 587.661C297.125 587.578 298.169 587.496 299.246 587.411C301.305 587.247 303.363 587.08 305.422 586.911C306.335 586.839 307.248 586.767 308.188 586.692C310.969 586.443 310.969 586.443 313.83 585.888C317.297 585.355 320.597 585.281 324.105 585.278C324.786 585.277 325.468 585.276 326.17 585.275C327.612 585.274 329.054 585.276 330.496 585.281C332.636 585.286 334.775 585.281 336.914 585.274C344.031 585.271 351.097 585.444 358.199 585.907C369.817 586.641 381.446 586.597 393.083 586.596C396.926 586.598 400.77 586.617 404.613 586.635C416.641 586.662 428.444 586.475 440.374 584.881C444.595 584.324 448.744 584.081 452.996 583.911C458.083 583.668 462.884 583.185 467.816 581.88C471.289 581.111 474.81 580.962 478.355 580.755C481.156 580.381 483.325 579.475 485.933 578.411C487.717 578.071 489.51 577.783 491.308 577.536C497.427 576.581 503.299 575.061 509.265 573.419C512.542 572.518 515.823 571.667 519.121 570.848C520.571 570.487 520.571 570.487 522.051 570.118C523.97 569.647 525.892 569.186 527.816 568.735C536.033 566.774 543.95 564.147 551.933 561.411C552.561 561.207 553.188 561.003 553.835 560.793C560.857 558.508 567.766 555.923 574.68 553.332C576.795 552.541 578.913 551.755 581.031 550.969C587.915 548.402 594.702 545.72 601.363 542.608C605.866 540.511 610.437 538.569 614.996 536.598C632.722 529.11 632.722 529.11 650.058 520.786C661.569 514.859 673.016 511.21 685.933 511.098C687.02 511.069 688.107 511.04 689.226 511.01C699.748 510.929 708.07 513.896 716.933 519.411C716.933 520.071 716.933 520.731 716.933 521.411C718.253 521.741 719.573 522.071 720.933 522.411C720.933 523.071 720.933 523.731 720.933 524.411C721.501 524.636 722.068 524.862 722.652 525.094C730.091 529.387 735.241 538.453 737.933 546.411C738.346 547.607 738.758 548.803 739.183 550.036C742.333 564.439 738.962 578.253 731.683 590.79C723.67 602.792 712.318 611.337 699.933 618.411C698.596 619.259 697.263 620.113 695.933 620.973C692.232 623.304 688.386 625.233 684.457 627.149C681.965 628.395 679.544 629.726 677.121 631.098C674.123 632.791 671.163 634.2 667.933 635.411C667.603 635.741 667.273 636.071 666.933 636.411C665.267 636.452 663.599 636.454 661.933 636.411C661.933 637.071 661.933 637.731 661.933 638.411C660.885 638.821 659.837 639.231 658.758 639.653C657.379 640.197 656 640.741 654.621 641.286C653.931 641.555 653.24 641.825 652.529 642.102C649.423 643.333 646.724 644.551 643.933 646.411C641.933 647.078 639.933 647.744 637.933 648.411C636.469 649.043 635.011 649.69 633.558 650.348C627.215 653.213 620.739 655.493 614.133 657.669C611.495 658.559 608.895 659.539 606.293 660.528C594.754 664.845 583.164 668.924 571.265 672.13C566.436 673.433 561.66 674.767 556.933 676.411C555.455 676.914 553.976 677.413 552.496 677.911C551.796 678.148 551.096 678.385 550.375 678.63C547.247 679.63 544.092 680.515 540.933 681.411C538.308 682.179 535.683 682.95 533.058 683.723C531.56 684.165 530.061 684.606 528.562 685.048C527.799 685.272 527.036 685.497 526.25 685.729C523.227 686.619 520.203 687.507 517.18 688.394C515.032 689.025 512.885 689.659 510.738 690.294C508.517 690.946 506.294 691.59 504.066 692.216C496.196 694.453 488.663 697.514 481.371 701.223C478.933 702.411 478.933 702.411 475.933 702.411C475.603 703.401 475.273 704.391 474.933 705.411C473.6 706.078 472.267 706.744 470.933 707.411C468.141 710.403 467.933 711.117 467.933 715.411C469.513 716.024 471.098 716.625 472.683 717.223C473.565 717.56 474.447 717.896 475.355 718.243C500.699 726.516 526.888 727.03 553.244 726.802C556.454 726.78 559.663 726.781 562.873 726.782C566.004 726.782 569.134 726.771 572.265 726.756C573.739 726.75 575.214 726.746 576.689 726.745C584.364 726.728 591.483 726.4 598.933 724.411C602.359 723.899 605.801 723.552 609.246 723.2C613.141 722.762 616.348 721.963 619.933 720.411C621.445 720.057 622.967 719.745 624.496 719.473C636.994 717.096 649.027 713.746 660.719 708.735C664.151 707.321 667.617 706.074 671.121 704.848C695.285 696.294 717.348 682.264 737.811 667.011C742.713 663.411 742.713 663.411 744.933 663.411C745.263 662.421 745.593 661.431 745.933 660.411C746.923 660.411 747.913 660.411 748.933 660.411C749.263 659.421 749.593 658.431 749.933 657.411C750.593 657.411 751.253 657.411 751.933 657.411C752.263 656.421 752.593 655.431 752.933 654.411C754.596 653.072 756.263 651.74 757.933 650.411C758.758 649.421 759.583 648.431 760.433 647.411C762.756 644.624 765.095 642.635 767.933 640.411C768.593 639.421 769.253 638.431 769.933 637.411C770.593 637.411 771.253 637.411 771.933 637.411C772.263 636.421 772.593 635.431 772.933 634.411C773.593 634.411 774.253 634.411 774.933 634.411C775.263 633.091 775.593 631.771 775.933 630.411C776.593 630.411 777.253 630.411 777.933 630.411C778.185 629.693 778.436 628.975 778.695 628.235C780.042 625.164 781.698 622.874 783.746 620.223C787.488 615.207 790.364 610.106 792.933 604.411C793.593 604.411 794.253 604.411 794.933 604.411C794.995 603.751 795.057 603.091 795.121 602.411C796.004 599.15 797.519 596.827 799.355 594.02C801.75 590.06 803.738 585.903 805.775 581.752C807.779 577.683 809.857 573.674 812.042 569.699C815.756 562.935 818.799 556.106 821.566 548.907C823.137 544.891 824.905 540.997 826.719 537.087C828.468 533.233 830.06 529.317 831.672 525.403C832.93 522.418 834.262 519.477 835.621 516.536C837.301 512.872 838.758 509.273 839.933 505.411C841.381 500.795 842.92 496.314 844.933 491.911C846.945 487.504 848.475 483.026 849.933 478.411C851.617 473.084 853.467 467.991 855.871 462.942C857.453 459.174 858.674 455.297 859.933 451.411C863.244 441.231 866.662 431.239 870.933 421.411C871.248 420.603 871.562 419.794 871.886 418.962C875.692 409.69 880.792 399.552 887.933 392.411C888.923 392.411 889.913 392.411 890.933 392.411C891.263 391.421 891.593 390.431 891.933 389.411C895.142 385.357 900.112 383.746 904.746 381.786C910.957 379.106 915.742 378.948 922.782 378.881Z" fill="#50C4C4"/>
<path d="M330.058 45.2238C331.123 45.2116 332.188 45.1993 333.285 45.1867C339.797 45.1748 345.907 45.7579 352.308 46.9413C356.272 47.6509 360.228 47.8491 364.242 48.0676C367.105 48.4333 369.271 49.3231 371.933 50.4113C373.904 50.7932 375.884 51.125 377.871 51.4113C384.766 52.4986 390.531 54.6675 396.933 57.4113C397.882 57.7207 398.831 58.0301 399.808 58.3488C410.757 62.0713 421.153 67.7502 431.191 73.4308C432.421 74.123 433.671 74.7802 434.933 75.4113C434.933 76.0713 434.933 76.7313 434.933 77.4113C435.618 77.6485 436.302 77.8857 437.008 78.1301C440.539 79.6764 443.599 81.7151 446.746 83.9113C447.642 84.5165 447.642 84.5165 448.556 85.134C450.055 86.1717 451.5 87.2861 452.933 88.4113C452.933 89.0713 452.933 89.7313 452.933 90.4113C453.495 90.6691 454.057 90.9269 454.636 91.1926C457.2 92.553 459.386 94.1392 461.683 95.9113C462.483 96.5197 463.282 97.1282 464.105 97.7551C464.708 98.3016 465.312 98.8482 465.933 99.4113C465.933 100.071 465.933 100.731 465.933 101.411C466.923 101.741 467.913 102.071 468.933 102.411C468.933 103.071 468.933 103.731 468.933 104.411C470.253 105.071 471.573 105.731 472.933 106.411C472.933 107.071 472.933 107.731 472.933 108.411C473.923 108.741 474.913 109.071 475.933 109.411C475.933 110.071 475.933 110.731 475.933 111.411C476.923 111.741 477.913 112.071 478.933 112.411C478.933 113.071 478.933 113.731 478.933 114.411C480.874 114.135 480.874 114.135 482.933 113.411C483.593 112.421 484.253 111.431 484.933 110.411C485.593 110.411 486.253 110.411 486.933 110.411C487.263 109.421 487.593 108.431 487.933 107.411C488.593 107.411 489.253 107.411 489.933 107.411C490.201 106.813 490.47 106.215 490.746 105.599C491.933 103.413 493.029 101.998 494.933 100.411C495.593 100.411 496.253 100.411 496.933 100.411C497.263 99.4213 497.593 98.4313 497.933 97.4113C501.378 94.4113 501.378 94.4113 503.933 94.4113C504.263 93.4213 504.593 92.4313 504.933 91.4113C506.894 89.5871 506.894 89.5871 509.308 87.7238C510.1 87.1012 510.891 86.4786 511.707 85.8371C513.933 84.4113 513.933 84.4113 516.933 84.4113C517.263 83.4213 517.593 82.4313 517.933 81.4113C523.11 76.9984 528.996 73.6927 535.117 70.7902C537.887 69.4342 540.575 67.9622 543.271 66.4662C550.957 62.2266 558.594 59.191 566.933 56.4113C568.601 55.7477 570.268 55.0812 571.933 54.4113C577.579 52.4577 582.951 51.0837 588.926 50.7199C590.981 50.5192 590.981 50.5192 592.777 49.4152C595.722 48.0442 598.322 48.0548 601.558 47.9113C605.915 47.6628 610.048 47.2948 614.308 46.3488C623.924 44.285 632.694 45.5532 641.371 50.2863C647.278 55.1851 650.274 60.6806 651.328 68.2433C651.759 76.0533 650.063 81.4669 644.933 87.4113C639.88 92.0507 634.836 94.0924 628.097 95.0871C625.758 95.3741 625.758 95.3741 622.933 96.4113C620.411 96.5659 617.896 96.6859 615.371 96.7863C608.824 97.1165 603.12 98.1649 596.933 100.411C591.884 101.978 587.171 102.86 581.933 103.411C581.933 104.071 581.933 104.731 581.933 105.411C581.111 105.703 580.289 105.994 579.441 106.294C572.043 109.011 565.522 112.111 558.933 116.411C557.089 117.607 555.244 118.8 553.398 119.992C552.151 120.8 550.907 121.611 549.666 122.428C547.098 124.104 544.858 125.436 541.933 126.411C541.603 127.401 541.273 128.391 540.933 129.411C538.894 131.208 538.894 131.208 536.308 133.161C528.448 139.316 522.635 145.92 516.851 154.032C516.218 154.817 515.585 155.602 514.933 156.411C514.273 156.411 513.613 156.411 512.933 156.411C512.839 156.942 512.745 157.473 512.648 158.021C511.699 161.195 510.159 163.799 508.496 166.661C507.878 167.739 507.261 168.817 506.625 169.927C506.067 170.747 505.508 171.567 504.933 172.411C504.273 172.411 503.613 172.411 502.933 172.411C502.769 173.279 502.769 173.279 502.601 174.165C500.535 181.112 494.123 186.838 488.121 190.525C483.281 192.487 476.765 192.315 471.816 190.736C470.183 189.911 470.183 189.911 467.933 188.411C467.933 187.751 467.933 187.091 467.933 186.411C467.335 186.168 466.737 185.924 466.121 185.673C463.524 184.175 462.53 182.745 460.933 180.224C460.425 179.423 459.918 178.623 459.394 177.798C458.671 176.617 458.671 176.617 457.933 175.411C457.513 174.737 457.093 174.063 456.66 173.368C454.942 170.511 453.933 168.802 453.933 165.411C453.273 165.411 452.613 165.411 451.933 165.411C450.911 163.911 449.968 162.357 449.058 160.786C445.997 155.828 442.602 151.394 438.808 146.974C438.055 146.088 438.055 146.088 437.285 145.184C434.401 141.869 431.453 139.074 427.933 136.411C425.621 134.286 425.621 134.286 423.933 132.411C423.933 131.751 423.933 131.091 423.933 130.411C423.393 130.172 422.853 129.932 422.297 129.685C419.322 128.082 416.795 126.102 414.121 124.036C409.883 120.796 405.665 117.885 400.933 115.411C400.933 114.751 400.933 114.091 400.933 113.411C399.727 113.318 399.727 113.318 398.496 113.224C394.503 112.313 391.671 110.717 388.156 108.681C382.869 105.661 377.682 103.987 371.754 102.841C369.933 102.411 369.933 102.411 368.933 101.411C365.708 100.869 362.472 100.445 359.23 100.009C355.933 99.4113 355.933 99.4113 353.833 98.3928C349.638 96.9729 345.642 97.1061 341.242 97.1105C340.301 97.1062 339.36 97.102 338.39 97.0975C336.399 97.0918 334.408 97.0913 332.417 97.0956C329.405 97.0988 326.395 97.0754 323.385 97.05C313.358 97.0181 304.544 97.3923 294.933 100.411C293.737 100.556 292.541 100.7 291.308 100.849C287.367 101.506 284.056 102.839 280.386 104.388C278.372 105.228 276.313 105.961 274.246 106.661C268.098 108.936 262.395 112.322 256.659 115.468C255.217 116.256 253.768 117.029 252.316 117.798C243.482 122.53 235.646 128.502 227.965 134.907C225.933 136.411 225.933 136.411 223.933 136.411C223.438 137.896 223.438 137.896 222.933 139.411C221.508 140.778 221.508 140.778 219.621 142.286C209.99 150.482 199.631 161.015 193.933 172.411C193.273 172.411 192.613 172.411 191.933 172.411C191.668 173.138 191.402 173.865 191.129 174.614C189.933 177.413 188.525 179.654 186.808 182.161C182.441 188.908 179.142 196.042 175.859 203.358C175.037 205.182 174.19 206.995 173.34 208.806C164.309 228.669 159.505 249.89 157.363 271.513C156.933 275.411 156.933 275.411 156.418 277.863C155.949 280.328 155.788 282.576 155.756 285.08C155.737 286.431 155.737 286.431 155.718 287.81C155.71 288.777 155.703 289.743 155.695 290.739C155.685 291.753 155.676 292.767 155.666 293.811C155.641 297.095 155.628 300.378 155.621 303.661C155.617 305.33 155.617 305.33 155.613 307.032C155.609 323.179 156.095 338.65 159.933 354.411C160.099 355.126 160.264 355.842 160.435 356.578C161.449 360.906 162.657 365.155 163.933 369.411C164.32 370.796 164.704 372.182 165.086 373.568C167.426 381.953 170.184 390.03 173.539 398.064C174.691 400.829 175.759 403.606 176.808 406.411C179.566 413.363 183.338 419.867 186.933 426.411C189.986 426.569 189.986 426.569 192.933 425.411C193.263 424.421 193.593 423.431 193.933 422.411C194.593 422.411 195.253 422.411 195.933 422.411C196.263 421.421 196.593 420.431 196.933 419.411C198.871 417.224 198.871 417.224 200.933 415.411C201.593 415.411 202.253 415.411 202.933 415.411C203.263 414.421 203.593 413.431 203.933 412.411C204.593 412.411 205.253 412.411 205.933 412.411C206.263 411.421 206.593 410.431 206.933 409.411C208.573 408.045 210.244 406.716 211.933 405.411C214.733 402.756 217.289 400.004 219.746 397.036C221.879 394.512 224.094 392.33 226.617 390.196C231.01 386.399 235.104 382.354 239.183 378.224C239.877 377.526 240.57 376.828 241.285 376.109C241.958 375.431 242.631 374.754 243.324 374.056C243.956 373.42 244.589 372.784 245.24 372.129C246.607 370.742 247.953 369.336 249.293 367.923C250.933 366.411 250.933 366.411 252.933 366.411C253.263 365.421 253.593 364.431 253.933 363.411C254.635 362.854 255.336 362.298 256.058 361.724C258.479 359.777 260.205 358.012 262.183 355.661C272.835 343.238 272.835 343.238 278.933 342.411C281.077 342.294 283.224 342.236 285.371 342.224C286.483 342.21 287.596 342.195 288.742 342.181C296.744 342.759 302.597 347.698 307.683 353.536C308.235 354.199 308.787 354.861 309.355 355.544C310.891 357.43 310.891 357.43 312.636 359.029C313.933 360.411 313.933 360.411 313.933 362.411C314.923 362.741 315.913 363.071 316.933 363.411C318.272 365.073 319.605 366.741 320.933 368.411C322.387 369.606 323.841 370.8 325.308 371.978C327.793 374.17 329.849 376.693 331.988 379.216C334.892 382.494 338.05 385.5 341.211 388.529C342.933 390.411 342.933 390.411 342.933 392.411C343.819 392.527 343.819 392.527 344.722 392.646C347.67 393.666 348.524 395.132 350.308 397.661C352.474 400.603 354.498 403.087 357.371 405.349C358.216 406.029 359.062 406.71 359.933 407.411C359.933 408.071 359.933 408.731 359.933 409.411C360.769 409.752 360.769 409.752 361.621 410.099C365.618 412.367 368.473 415.03 369.933 419.411C370.923 419.741 371.913 420.071 372.933 420.411C374.441 421.943 374.441 421.943 376.058 423.911C378.829 427.171 381.684 430.296 384.683 433.349C385.421 434.1 386.158 434.852 386.918 435.626C388.902 437.619 388.902 437.619 391.933 438.411C391.933 437.751 391.933 437.091 391.933 436.411C393.367 435.001 393.367 435.001 395.371 433.349C399.523 429.841 403.291 426.057 407.051 422.134C408.933 420.411 408.933 420.411 410.933 420.411C411.186 419.828 411.438 419.245 411.698 418.643C413.084 416.14 414.597 414.623 416.707 412.696C417.449 412.01 418.192 411.324 418.957 410.616C419.733 409.909 420.509 409.202 421.308 408.474C425.854 404.314 430.171 400.314 433.933 395.411C435.048 394.377 436.195 393.375 437.371 392.411C442.044 388.445 446.288 384.085 450.541 379.679C451.969 378.22 453.447 376.811 454.933 375.411C455.593 375.411 456.253 375.411 456.933 375.411C457.201 374.813 457.47 374.215 457.746 373.599C458.933 371.413 460.029 369.998 461.933 368.411C462.593 368.411 463.253 368.411 463.933 368.411C464.191 367.814 464.449 367.218 464.715 366.603C466.034 364.23 467.321 363.027 469.433 361.349C471.87 359.403 473.156 358.077 474.933 355.411C475.593 355.411 476.253 355.411 476.933 355.411C477.263 354.421 477.593 353.431 477.933 352.411C478.593 352.411 479.253 352.411 479.933 352.411C480.263 351.421 480.593 350.431 480.933 349.411C482.583 348.057 484.251 346.725 485.933 345.411C486.593 344.421 487.253 343.431 487.933 342.411C488.593 342.411 489.253 342.411 489.933 342.411C490.263 341.421 490.593 340.431 490.933 339.411C492.595 338.072 494.263 336.74 495.933 335.411C496.851 334.347 497.747 333.263 498.621 332.161C499.384 331.254 500.147 330.346 500.933 329.411C501.593 329.411 502.253 329.411 502.933 329.411C503.183 328.835 503.433 328.258 503.69 327.664C505.107 325.097 506.723 323.411 508.82 321.364C509.594 320.601 510.368 319.838 511.166 319.052C511.976 318.263 512.786 317.474 513.621 316.661C518.736 311.658 523.735 306.661 528.339 301.178C530.081 299.248 531.948 297.589 533.933 295.911C537.43 292.949 540.383 289.742 543.347 286.255C545.422 283.844 547.656 281.63 549.933 279.411C550.452 278.871 550.97 278.331 551.504 277.775C552.943 276.283 554.435 274.843 555.933 273.411C556.593 273.411 557.253 273.411 557.933 273.411C557.933 272.751 557.933 272.091 557.933 271.411C558.593 271.411 559.253 271.411 559.933 271.411C560.322 270.526 560.322 270.526 560.718 269.623C562.024 267.247 563.37 265.841 565.375 264.029C566.041 263.419 566.706 262.809 567.392 262.181C568.086 261.556 568.781 260.93 569.496 260.286C570.874 259.036 572.251 257.784 573.625 256.529C574.235 255.978 574.846 255.427 575.475 254.86C577.045 253.455 577.045 253.455 577.933 251.411C578.593 251.411 579.253 251.411 579.933 251.411C580.163 250.847 580.392 250.282 580.629 249.7C582.28 246.803 584.317 244.997 586.808 242.786C587.672 242.01 588.536 241.234 589.426 240.435C591.933 238.411 591.933 238.411 594.191 237.325C596.296 236.478 596.296 236.478 596.933 233.411C598.583 232.057 600.251 230.725 601.933 229.411C602.593 228.421 603.253 227.431 603.933 226.411C604.593 226.411 605.253 226.411 605.933 226.411C606.263 225.421 606.593 224.431 606.933 223.411C607.593 223.411 608.253 223.411 608.933 223.411C609.201 222.813 609.47 222.215 609.746 221.599C610.932 219.413 612.029 217.998 613.933 216.411C614.593 216.411 615.253 216.411 615.933 216.411C616.263 215.421 616.593 214.431 616.933 213.411C617.593 213.411 618.253 213.411 618.933 213.411C619.263 212.421 619.593 211.431 619.933 210.411C621.871 208.224 621.871 208.224 623.933 206.411C624.593 206.411 625.253 206.411 625.933 206.411C626.263 205.421 626.593 204.431 626.933 203.411C627.593 203.411 628.253 203.411 628.933 203.411C629.263 202.421 629.593 201.431 629.933 200.411C631.871 198.224 631.871 198.224 633.933 196.411C634.593 196.411 635.253 196.411 635.933 196.411C636.16 195.854 636.387 195.298 636.621 194.724C638.889 190.727 641.552 187.872 645.933 186.411C646.263 185.421 646.593 184.431 646.933 183.411C647.593 183.411 648.253 183.411 648.933 183.411C649.201 182.813 649.47 182.215 649.746 181.599C650.932 179.413 652.029 177.998 653.933 176.411C654.593 176.411 655.253 176.411 655.933 176.411C656.142 175.874 656.351 175.336 656.566 174.782C658.461 171.497 661.096 169.078 663.808 166.474C668.023 162.415 668.023 162.415 671.816 157.97C673.611 155.801 675.28 154.193 677.41 152.388C681.079 149.252 684.473 145.896 687.832 142.435C688.356 141.898 688.88 141.361 689.421 140.807C691.601 138.574 693.779 136.339 695.937 134.085C710.758 118.64 710.758 118.64 722.433 117.786C730.396 118.214 736.527 121.512 741.871 127.349C742.918 128.683 743.942 130.035 744.933 131.411C745.892 132.742 745.892 132.742 746.871 134.099C748.828 140.2 749.362 146.909 746.902 152.939C743.163 158.848 737.979 163.625 732.933 168.411C732.391 168.991 731.848 169.571 731.289 170.169C729.933 171.411 729.933 171.411 727.933 171.411C727.572 172.26 727.572 172.26 727.203 173.126C725.673 175.879 723.841 177.751 721.611 179.977C720.716 180.875 719.821 181.773 718.898 182.698C717.918 183.672 716.938 184.645 715.957 185.618C714.947 186.627 713.938 187.636 712.929 188.645C710.812 190.76 708.692 192.872 706.569 194.982C703.867 197.666 701.172 200.357 698.48 203.051C696.393 205.137 694.305 207.22 692.215 209.303C691.222 210.293 690.229 211.283 689.237 212.274C684.143 217.36 679.02 222.348 673.543 227.021C671.214 229.033 669.083 231.21 666.933 233.411C665.862 234.467 665.862 234.467 664.769 235.544C660.116 240.105 660.116 240.105 655.871 245.036C654.101 247.205 652.374 248.8 650.246 250.599C646.131 254.1 642.631 257.991 639.109 262.079C636.874 264.475 634.5 266.381 631.933 268.411C628.421 271.828 625.104 275.386 621.82 279.021C616.77 284.569 611.547 289.919 606.219 295.201C604.702 296.705 603.188 298.212 601.675 299.72C598.473 302.912 595.266 306.099 592.058 309.286C588.314 313.007 584.571 316.73 580.832 320.457C579.351 321.931 577.867 323.402 576.384 324.873C570.935 330.276 570.935 330.276 565.909 336.064C565.257 336.839 564.605 337.613 563.933 338.411C563.273 338.411 562.613 338.411 561.933 338.411C561.603 339.401 561.273 340.391 560.933 341.411C560.273 341.411 559.613 341.411 558.933 341.411C558.603 342.401 558.273 343.391 557.933 344.411C555.996 346.599 555.996 346.599 553.933 348.411C553.273 348.411 552.613 348.411 551.933 348.411C551.603 349.401 551.273 350.391 550.933 351.411C550.273 351.411 549.613 351.411 548.933 351.411C548.603 352.401 548.273 353.391 547.933 354.411C546.261 356.025 546.261 356.025 544.183 357.724C541.627 359.884 539.328 361.978 537.246 364.599C534.996 367.335 532.686 369.209 529.933 371.411C529.108 372.401 528.283 373.391 527.433 374.411C525.098 377.214 522.764 379.147 519.933 381.411C519.108 382.401 518.283 383.391 517.433 384.411C515.098 387.214 512.764 389.147 509.933 391.411C509.108 392.401 508.283 393.391 507.433 394.411C505.098 397.214 502.764 399.147 499.933 401.411C499.108 402.401 498.283 403.391 497.433 404.411C495.096 407.216 492.803 409.187 489.933 411.411C486.157 414.989 482.81 418.847 479.484 422.837C478.972 423.357 478.461 423.876 477.933 424.411C477.273 424.411 476.613 424.411 475.933 424.411C475.603 425.401 475.273 426.391 474.933 427.411C473.271 428.75 471.604 430.083 469.933 431.411C469.015 432.476 468.119 433.56 467.246 434.661C466.483 435.569 465.72 436.476 464.933 437.411C464.273 437.411 463.613 437.411 462.933 437.411C462.665 438.009 462.397 438.608 462.121 439.224C460.934 441.41 459.837 442.825 457.933 444.411C457.273 444.411 456.613 444.411 455.933 444.411C455.603 445.401 455.273 446.391 454.933 447.411C454.273 447.411 453.613 447.411 452.933 447.411C452.603 448.401 452.273 449.391 451.933 450.411C451.273 450.411 450.613 450.411 449.933 450.411C449.273 451.731 448.613 453.051 447.933 454.411C447.273 454.411 446.613 454.411 445.933 454.411C445.603 455.401 445.273 456.391 444.933 457.411C444.273 457.411 443.613 457.411 442.933 457.411C442.603 458.401 442.273 459.391 441.933 460.411C441.273 460.411 440.613 460.411 439.933 460.411C439.665 461.009 439.397 461.608 439.121 462.224C437.934 464.41 436.837 465.825 434.933 467.411C434.273 467.411 433.613 467.411 432.933 467.411C432.603 468.401 432.273 469.391 431.933 470.411C429.109 473.541 426.662 475.547 422.933 477.411C422.603 478.401 422.273 479.391 421.933 480.411C420.275 481.756 418.608 483.087 416.933 484.411C416.329 485.195 415.724 485.979 415.101 486.786C412.804 489.568 410.489 491.443 407.558 493.536C406.643 494.199 405.728 494.861 404.785 495.544C397.72 500.171 392.329 501.567 383.933 500.411C380.58 499.171 377.826 497.497 374.933 495.411C373.943 494.71 372.953 494.009 371.933 493.286C368.2 490.021 365.238 486.012 362.179 482.13C359.9 479.371 357.477 476.928 354.933 474.411C353.933 473.412 352.934 472.413 351.935 471.413C351.404 470.882 350.874 470.352 350.327 469.805C339.13 458.608 339.13 458.608 327.933 447.411C327.382 446.901 326.83 446.391 326.262 445.865C324.933 444.411 324.933 444.411 324.933 442.411C324.34 442.157 323.747 441.903 323.136 441.642C320.689 440.275 319.44 438.894 317.683 436.724C315.384 434.008 313.093 431.577 310.371 429.286C306.277 425.812 302.481 422.077 298.683 418.286C298.081 417.688 297.478 417.09 296.857 416.473C294.297 413.906 291.908 411.379 289.652 408.532C287.776 406.217 286.849 405.724 283.933 405.411C283.933 406.071 283.933 406.731 283.933 407.411C282.474 408.639 281.01 409.862 279.519 411.052C277.33 412.928 275.687 415.131 273.933 417.411C271.808 419.724 271.808 419.724 269.933 421.411C269.273 421.411 268.613 421.411 267.933 421.411C267.603 422.401 267.273 423.391 266.933 424.411C265.294 425.778 263.622 427.106 261.933 428.411C259.483 430.802 257.098 433.237 254.746 435.724C252.933 437.411 252.933 437.411 250.933 437.411C250.665 438.009 250.397 438.608 250.121 439.224C248.934 441.41 247.837 442.825 245.933 444.411C245.273 444.411 244.613 444.411 243.933 444.411C243.603 445.401 243.273 446.391 242.933 447.411C242.273 447.411 241.613 447.411 240.933 447.411C240.727 447.948 240.521 448.484 240.308 449.036C238.401 452.331 235.885 455.005 232.933 457.411C232.273 457.411 231.613 457.411 230.933 457.411C230.603 458.401 230.273 459.391 229.933 460.411C229.273 460.411 228.613 460.411 227.933 460.411C227.665 461.009 227.397 461.608 227.121 462.224C225.934 464.41 224.837 465.825 222.933 467.411C222.273 467.411 221.613 467.411 220.933 467.411C220.603 468.401 220.273 469.391 219.933 470.411C219.273 470.411 218.613 470.411 217.933 470.411C217.603 471.401 217.273 472.391 216.933 473.411C216.273 473.411 215.613 473.411 214.933 473.411C217.24 478.025 220.584 481.151 224.289 484.642C225.933 486.411 225.933 486.411 225.933 488.411C226.593 488.411 227.253 488.411 227.933 488.411C230.058 490.286 230.058 490.286 231.933 492.411C231.933 493.071 231.933 493.731 231.933 494.411C232.923 494.741 233.913 495.071 234.933 495.411C236.623 497.054 238.286 498.726 239.933 500.411C241.796 501.992 243.678 503.544 245.578 505.079C246.025 505.519 246.472 505.958 246.933 506.411C246.933 507.071 246.933 507.731 246.933 508.411C247.516 508.679 248.099 508.948 248.699 509.224C250.961 510.426 252.739 511.75 254.683 513.411C255.297 513.927 255.911 514.443 256.543 514.974C257.933 516.411 257.933 516.411 257.933 518.411C258.923 518.411 259.913 518.411 260.933 518.411C263.121 520.286 263.121 520.286 264.933 522.411C264.933 523.071 264.933 523.731 264.933 524.411C265.923 524.741 266.913 525.071 267.933 525.411C272.078 531.628 272.608 538.951 271.246 546.161C270.181 550.24 268.605 553.155 265.933 556.411C265.273 556.411 264.613 556.411 263.933 556.411C263.603 557.401 263.273 558.391 262.933 559.411C255.669 564.6 247.496 564.433 238.933 563.411C235.502 562.198 232.803 560.626 229.933 558.411C229.196 557.902 228.459 557.393 227.699 556.868C227.116 556.388 226.534 555.907 225.933 555.411C225.933 554.751 225.933 554.091 225.933 553.411C225.036 552.978 225.036 552.978 224.121 552.536C221.933 551.411 221.933 551.411 218.933 549.411C218.933 548.751 218.933 548.091 218.933 547.411C218.361 547.156 217.789 546.901 217.199 546.638C209.272 542.346 202.674 534.271 196.308 527.974C195.585 527.263 194.861 526.553 194.116 525.821C193.445 525.151 192.773 524.481 192.082 523.79C191.475 523.188 190.868 522.585 190.243 521.964C188.933 520.411 188.933 520.411 188.933 518.411C187.943 518.081 186.953 517.751 185.933 517.411C185.933 516.421 185.933 515.431 185.933 514.411C184.943 514.081 183.953 513.751 182.933 513.411C181.109 511.634 181.109 511.634 179.246 509.474C178.312 508.408 178.312 508.408 177.359 507.321C175.933 505.411 175.933 505.411 175.933 503.411C174.943 503.081 173.953 502.751 172.933 502.411C171.883 500.776 170.894 499.101 169.933 497.411C168.213 494.957 166.412 492.564 164.621 490.161C154.161 475.997 146.057 461.001 137.933 445.411C137.4 444.388 136.866 443.364 136.316 442.31C133.896 437.575 131.816 432.786 129.894 427.829C128.996 425.568 128.016 423.37 126.996 421.161C122.317 410.689 119.09 399.82 116.121 388.771C115.118 385.041 114.002 381.354 112.871 377.661C96.3848 319.593 101.098 249.985 123.933 194.411C124.201 193.752 124.469 193.093 124.745 192.414C128.292 183.76 132.343 175.621 137.105 167.575C138.656 164.891 140.009 162.221 141.308 159.411C144.671 152.539 149.372 146.518 153.933 140.411C154.396 139.786 154.858 139.161 155.334 138.516C156.692 136.683 158.06 134.858 159.433 133.036C160.065 132.188 160.065 132.188 160.709 131.322C161.736 129.98 162.829 128.69 163.933 127.411C164.593 127.411 165.253 127.411 165.933 127.411C166.192 126.834 166.452 126.256 166.719 125.661C168.027 123.238 169.522 121.447 171.371 119.411C173.212 117.375 174.94 115.402 176.531 113.161C176.994 112.584 177.457 112.006 177.933 111.411C178.593 111.411 179.253 111.411 179.933 111.411C180.14 110.86 180.346 110.308 180.558 109.739C182.445 106.544 185.09 104.468 187.933 102.161C188.48 101.702 189.026 101.243 189.59 100.771C193.669 97.4113 193.669 97.4113 195.933 97.4113C196.263 96.4213 196.593 95.4313 196.933 94.4113C198.907 93.0386 200.909 91.707 202.933 90.4113C203.49 89.8338 204.047 89.2563 204.621 88.6613C205.933 87.4113 205.933 87.4113 208.933 87.4113C209.263 86.4213 209.593 85.4313 209.933 84.4113C210.923 84.4113 211.913 84.4113 212.933 84.4113C213.263 83.4213 213.593 82.4313 213.933 81.4113C219.19 77.4113 219.19 77.4113 222.933 77.4113C222.933 76.7513 222.933 76.0913 222.933 75.4113C224.913 75.0813 225.46 73.84 227.5 73.5C227.995 72.015 229.428 72.9263 229.933 71.4113C231.56 70.3681 231.56 70.3681 233.644 69.4387C234.395 69.0964 235.145 68.7542 235.918 68.4015C236.707 68.0541 237.496 67.7067 238.308 67.3488C239.859 66.6516 241.408 65.9525 242.957 65.2512C243.992 64.7928 243.992 64.7928 245.048 64.3251C247.184 63.3429 247.184 63.3429 249.933 61.4113C251.928 60.7301 253.93 60.067 255.933 59.4113C257.518 58.7488 259.102 58.0817 260.683 57.4113C264.982 55.658 269.129 54.6341 273.707 53.9035C275.953 53.5022 275.953 53.5022 277.906 52.423C280.262 51.2473 282.408 50.8132 284.996 50.3488C287.765 49.845 290.255 49.3039 292.933 48.4113C294.342 48.2122 295.756 48.049 297.172 47.9113C297.992 47.8288 298.813 47.7463 299.658 47.6613C300.512 47.5788 301.366 47.4963 302.246 47.4113C308.541 46.8313 308.541 46.8313 314.781 45.8605C319.859 45.1368 324.936 45.2268 330.058 45.2238Z" fill="#50C4C4"/>
<path d="M85.5583 707.286C87.7673 709.239 89.7062 711.244 91.5583 713.536C93.839 716.297 96.1159 718.228 98.9333 720.411C102.569 723.866 105.858 727.457 108.933 731.411C108.933 732.071 108.933 732.731 108.933 733.411C109.531 733.68 110.13 733.948 110.746 734.224C112.932 735.411 114.347 736.507 115.933 738.411C115.933 739.071 115.933 739.731 115.933 740.411C117.418 740.906 117.418 740.906 118.933 741.411C118.933 742.071 118.933 742.731 118.933 743.411C120.418 743.906 120.418 743.906 121.933 744.411C121.933 745.071 121.933 745.731 121.933 746.411C122.531 746.68 123.13 746.948 123.746 747.224C125.932 748.411 127.347 749.507 128.933 751.411C128.933 752.071 128.933 752.731 128.933 753.411C130.418 753.906 130.418 753.906 131.933 754.411C131.933 755.071 131.933 755.731 131.933 756.411C133.418 756.906 133.418 756.906 134.933 757.411C134.933 758.071 134.933 758.731 134.933 759.411C136.253 760.071 137.573 760.731 138.933 761.411C138.933 762.071 138.933 762.731 138.933 763.411C139.923 763.741 140.913 764.071 141.933 764.411C141.933 765.071 141.933 765.731 141.933 766.411C142.923 766.741 143.913 767.071 144.933 767.411C144.933 768.071 144.933 768.731 144.933 769.411C146.253 770.071 147.573 770.731 148.933 771.411C148.933 772.071 148.933 772.731 148.933 773.411C149.923 773.741 150.913 774.071 151.933 774.411C151.933 775.071 151.933 775.731 151.933 776.411C152.923 776.741 153.913 777.071 154.933 777.411C156.272 779.074 157.605 780.741 158.933 782.411C159.923 783.236 160.913 784.061 161.933 784.911C164.736 787.247 166.669 789.58 168.933 792.411C169.923 793.236 170.913 794.061 171.933 794.911C174.73 797.242 176.682 799.579 178.933 802.411C180.14 803.37 180.14 803.37 181.371 804.349C184.34 806.739 186.497 809.487 188.933 812.411C189.758 813.071 190.583 813.731 191.433 814.411C194.392 816.778 196.54 819.48 198.933 822.411C201.184 824.721 203.479 826.975 205.804 829.208C206.445 829.832 207.086 830.456 207.746 831.099C208.35 831.68 208.955 832.262 209.578 832.861C210.933 834.411 210.933 834.411 210.933 836.411C211.923 836.741 212.913 837.071 213.933 837.411C216.121 839.349 216.121 839.349 217.933 841.411C217.933 842.071 217.933 842.731 217.933 843.411C218.923 843.741 219.913 844.071 220.933 844.411C220.933 845.071 220.933 845.731 220.933 846.411C221.923 846.741 222.913 847.071 223.933 847.411C223.933 848.071 223.933 848.731 223.933 849.411C225.253 850.071 226.573 850.731 227.933 851.411C227.933 852.071 227.933 852.731 227.933 853.411C228.53 853.669 229.127 853.927 229.742 854.193C232.114 855.512 233.317 856.799 234.996 858.911C236.942 861.348 238.267 862.634 240.933 864.411C240.933 865.071 240.933 865.731 240.933 866.411C241.923 866.741 242.913 867.071 243.933 867.411C243.933 868.071 243.933 868.731 243.933 869.411C244.493 869.642 245.052 869.873 245.629 870.111C248.54 871.754 250.492 873.817 252.808 876.224C256.766 880.293 256.766 880.293 261.121 883.911C265.187 887.525 267.996 891.859 270.933 896.411C271.757 897.614 271.757 897.614 272.597 898.841C275.186 903.821 274.911 908.986 273.933 914.411C271.762 918.55 269.015 921.916 265.933 925.411C265.015 926.577 264.099 927.744 263.183 928.911C261.206 931.108 259.44 932.856 256.933 934.411C256.273 934.411 255.613 934.411 254.933 934.411C254.665 935.009 254.397 935.608 254.121 936.224C252.934 938.41 251.837 939.825 249.933 941.411C249.273 941.411 248.613 941.411 247.933 941.411C247.603 942.401 247.273 943.391 246.933 944.411C246.273 944.411 245.613 944.411 244.933 944.411C244.665 945.009 244.397 945.608 244.121 946.224C242.934 948.41 241.837 949.825 239.933 951.411C239.273 951.411 238.613 951.411 237.933 951.411C237.603 952.401 237.273 953.391 236.933 954.411C236.273 954.411 235.613 954.411 234.933 954.411C234.603 955.401 234.273 956.391 233.933 957.411C232.943 957.411 231.953 957.411 230.933 957.411C230.933 958.071 230.933 958.731 230.933 959.411C218.665 964.842 218.665 964.842 212.57 962.505C210.326 961.528 208.124 960.502 205.933 959.411C205.933 958.751 205.933 958.091 205.933 957.411C204.943 957.411 203.953 957.411 202.933 957.411C201.109 955.732 201.109 955.732 199.246 953.536C198.312 952.457 198.312 952.457 197.359 951.357C195.933 949.411 195.933 949.411 195.933 947.411C194.943 947.081 193.953 946.751 192.933 946.411C192.933 945.751 192.933 945.091 192.933 944.411C191.943 944.081 190.953 943.751 189.933 943.411C187.746 941.474 187.746 941.474 185.933 939.411C185.933 938.751 185.933 938.091 185.933 937.411C184.943 937.081 183.953 936.751 182.933 936.411C181.567 934.772 180.238 933.1 178.933 931.411C177.282 929.729 175.612 928.066 173.933 926.411C172.834 925.318 171.735 924.223 170.637 923.128C169.374 921.871 168.111 920.615 166.848 919.358C159.811 912.354 152.78 905.345 145.751 898.333C141.501 894.093 137.249 889.855 132.993 885.622C128.872 881.523 124.756 877.419 120.644 873.311C119.074 871.745 117.503 870.181 115.929 868.619C113.739 866.443 111.554 864.26 109.372 862.077C108.715 861.428 108.059 860.779 107.384 860.11C102.933 855.639 102.933 855.639 102.933 853.411C102.273 853.411 101.613 853.411 100.933 853.411C99.5873 852.045 99.5873 852.045 97.9848 850.094C93.3132 844.605 88.2162 839.569 83.1091 834.489C82.0747 833.457 81.0406 832.424 80.0066 831.391C77.3061 828.695 74.6026 826.001 71.8984 823.308C69.1471 820.567 66.3987 817.823 63.6501 815.079C58.8195 810.258 53.9864 805.44 49.1515 800.623C48.4195 799.893 47.6875 799.163 46.9333 798.411C46.1772 797.697 45.4212 796.982 44.6422 796.246C42.9333 794.411 42.9333 794.411 42.9333 792.411C41.4483 791.916 41.4483 791.916 39.9333 791.411C39.9333 790.751 39.9333 790.091 39.9333 789.411C38.6133 788.751 37.2933 788.091 35.9333 787.411C35.9333 786.751 35.9333 786.091 35.9333 785.411C34.4483 784.916 34.4483 784.916 32.9333 784.411C32.9333 783.751 32.9333 783.091 32.9333 782.411C31.4483 781.916 31.4483 781.916 29.9333 781.411C29.9333 780.751 29.9333 780.091 29.9333 779.411C28.4483 778.916 28.4483 778.916 26.9333 778.411C24.7458 776.474 24.7458 776.474 22.9333 774.411C22.9333 773.751 22.9333 773.091 22.9333 772.411C21.9433 772.081 20.9533 771.751 19.9333 771.411C16.9333 767.967 16.9333 767.967 16.9333 765.411C16.2733 765.411 15.6133 765.411 14.9333 765.411C11.8391 760.03 10.0523 755.075 11.5232 748.958C13.716 742.822 17.0238 737.74 21.9333 733.411C22.5933 733.411 23.2533 733.411 23.9333 733.411C24.1885 732.832 24.4438 732.252 24.7067 731.655C26.0592 729.181 27.5706 727.515 29.5583 725.521C30.6179 724.457 30.6179 724.457 31.6989 723.372C32.4363 722.643 33.1736 721.913 33.9333 721.161C35.0393 720.044 35.0393 720.044 36.1677 718.904C36.8741 718.2 37.5805 717.496 38.3083 716.771C38.9554 716.126 39.6025 715.481 40.2692 714.817C41.9333 713.411 41.9333 713.411 43.9333 713.411C44.2633 712.421 44.5933 711.431 44.9333 710.411C45.5933 710.411 46.2533 710.411 46.9333 710.411C47.2633 709.421 47.5933 708.431 47.9333 707.411C50.0075 705.622 50.0075 705.622 52.6208 703.786C53.4703 703.175 54.3198 702.564 55.195 701.935C65.7586 696.058 76.9793 700.272 85.5583 707.286Z" fill="#50C4C4"/>
<path d="M801.679 162.419C813.764 169.749 821.797 185.299 825.933 198.411C826.588 200.02 827.254 201.624 827.933 203.223C829.577 207.265 830.651 211.184 831.504 215.454C832.042 217.904 832.961 220.102 833.933 222.411C834.615 224.74 835.28 227.074 835.933 229.411C836.252 230.513 836.57 231.615 836.898 232.751C842.421 253.179 843.412 273.841 843.27 294.915C843.246 298.699 843.249 302.482 843.256 306.266C843.25 308.715 843.243 311.165 843.234 313.614C843.235 314.723 843.236 315.833 843.237 316.976C843.179 323.423 842.582 329.525 841.394 335.864C840.642 340.023 840.488 344.19 840.277 348.403C839.907 351.638 839 354.34 837.933 357.411C837.543 359.341 837.187 361.279 836.871 363.223C836.041 368.303 836.041 368.303 834.933 369.411C834.631 371.176 834.367 372.949 834.121 374.723C833.083 381.247 831.151 387.206 828.933 393.411C828.43 394.951 827.93 396.493 827.433 398.036C826.129 401.941 824.646 405.753 823.086 409.563C822.241 411.65 821.425 413.748 820.625 415.852C817.079 425.126 812.77 433.747 807.933 442.411C807.183 443.762 807.183 443.762 806.418 445.141C805.602 446.607 804.785 448.072 803.965 449.536C802.542 452.122 801.226 454.757 799.933 457.411C799.273 457.411 798.613 457.411 797.933 457.411C797.665 458.133 797.397 458.854 797.121 459.598C795.934 462.408 794.659 464.895 792.933 467.411C792.273 467.411 791.613 467.411 790.933 467.411C790.848 468.215 790.848 468.215 790.761 469.036C789.553 472.501 787.163 474.795 784.683 477.411C784.205 477.931 783.727 478.452 783.234 478.989C775.978 486.776 769.544 490.763 758.769 491.415C753.112 491.407 748.851 488.987 743.933 486.411C743.933 485.751 743.933 485.091 743.933 484.411C743.067 484.101 743.067 484.101 742.183 483.786C739.013 481.849 737.268 479.829 735.933 476.411C735.208 472.073 735 467.804 734.933 463.411C734.913 462.214 734.892 461.018 734.871 459.786C737.38 451.816 743.786 445.495 749.277 439.368C753.823 433.996 757.302 427.912 760.64 421.743C762.52 418.353 764.561 415.065 766.601 411.77C767.955 409.372 768.94 406.975 769.933 404.411C770.544 403.195 771.168 401.986 771.808 400.786C774.955 394.575 777.263 387.989 779.121 381.286C779.933 378.411 779.933 378.411 780.933 377.411C781.388 375.38 781.838 373.349 782.269 371.313C783.036 367.96 783.952 364.663 784.871 361.348C786.573 355.151 787.872 348.931 788.982 342.602C789.478 339.775 790.024 337.14 790.933 334.411C792.135 323.885 792.096 313.3 792.058 302.723C792.056 301.536 792.055 301.536 792.053 300.325C792.014 275.673 792.014 275.673 787.933 251.411C787.574 249.829 787.219 248.245 786.871 246.661C786.637 245.628 786.637 245.628 786.398 244.575C785.685 241.257 785.09 237.916 784.496 234.575C783.989 232.139 783.989 232.139 781.933 229.411C781.821 228.373 781.709 227.335 781.594 226.266C780.765 221.427 778.79 217.943 776.371 213.723C775.529 212.244 774.694 210.761 773.867 209.274C773.496 208.627 773.126 207.981 772.744 207.314C771.933 205.411 771.933 205.411 771.933 201.411C771.273 201.411 770.613 201.411 769.933 201.411C765.319 193.809 764.917 186.135 765.933 177.411C766.969 174.532 768.035 172.842 769.933 170.411C770.593 170.411 771.253 170.411 771.933 170.411C772.263 169.421 772.593 168.431 772.933 167.411C780.623 160.244 791.951 158.848 801.679 162.419Z" fill="#50C4C4"/>
<path d="M753.609 6.02311C754.53 6.01785 755.452 6.01259 756.402 6.00718C759.421 5.99407 762.441 6.00268 765.461 6.01285C767.576 6.01083 769.692 6.00791 771.807 6.00415C776.231 5.99974 780.655 6.00612 785.079 6.02018C790.728 6.03726 796.378 6.02743 802.028 6.00946C806.394 5.99858 810.76 6.00209 815.125 6.00984C817.208 6.01183 819.29 6.00942 821.372 6.0024C824.291 5.99472 827.209 6.00649 830.128 6.02311C831.4 6.014 831.4 6.014 832.697 6.0047C843.069 6.11323 851.515 9.06606 858.933 16.4113C865.1 24.0669 866.234 31.8283 866.208 41.3788C866.213 42.3554 866.218 43.332 866.223 44.3382C866.237 47.5541 866.236 50.7697 866.234 53.9855C866.238 56.2336 866.242 58.4817 866.247 60.7298C866.255 65.4397 866.254 70.1494 866.249 74.8593C866.243 80.87 866.26 86.8803 866.283 92.8909C866.298 97.5349 866.299 102.179 866.296 106.823C866.296 109.037 866.301 111.252 866.312 113.466C866.429 142.714 866.429 142.714 858.929 151.653C854 155.994 847.425 159.666 840.746 159.974C833.007 158.832 825.293 156.686 820.269 150.294C815.822 143.865 814.781 139.511 814.82 131.705C814.82 130.934 814.819 130.163 814.819 129.369C814.82 126.825 814.828 124.282 814.836 121.739C814.838 119.974 814.839 118.208 814.84 116.443C814.844 111.8 814.854 107.158 814.865 102.515C814.875 97.7762 814.879 93.0371 814.884 88.298C814.895 79.0024 814.912 69.7069 814.933 60.4113C814.093 60.4054 813.253 60.3996 812.388 60.3935C804.43 60.3354 796.472 60.2631 788.514 60.1756C784.424 60.1311 780.333 60.0918 776.243 60.0649C772.288 60.0386 768.333 59.9981 764.378 59.9481C762.877 59.9316 761.376 59.92 759.875 59.9137C748.247 59.8601 737.321 59.7699 728.59 51.2355C722.735 44.7867 721.634 38.8664 721.781 30.3879C722.36 22.8781 725.733 17.2875 731.121 12.2238C737.815 6.87071 745.273 5.96353 753.609 6.02311Z" fill="#50C4C4"/>
</svg>
